<svg width="240" height="324" viewBox="0 0 240 324" fill="none" xmlns="http://www.w3.org/2000/svg">
<path fill-rule="evenodd" clip-rule="evenodd" d="M192.496 217.789C192.496 216.078 190.13 213.043 190.126 211.494C192.115 211.138 193.778 208.442 193.337 206.753C192.561 206.16 190.526 204.991 189.684 204.445C184.556 204.601 186.505 197.464 185.925 193.836C185.34 190.286 184.906 186.575 184.051 183.006C182.532 180.149 181.819 176.948 180.367 174.106C179.719 173.164 178.671 172.301 178.357 171.206C175.181 167.736 170.809 165.656 167.211 162.717C168.607 162.269 168.514 160.385 168.424 159.175C168.749 157.597 168.401 155.617 166.962 154.727C166.476 153.142 164.35 152.589 163.107 153.599C162.291 149.938 159.096 147.716 155.749 146.358C155.752 146.347 155.755 146.336 155.758 146.326C152.383 144.986 148.338 144.318 144.971 145.071C146.748 125.257 131.579 124.53 123.88 126.195C119.942 127.047 114.033 129.698 112.691 133.384C111.933 135.465 109.759 142.177 109.449 144.318C103.57 140.962 96.7547 136.536 91.6555 143.293C90.6345 144.47 89.5046 145.345 87.9767 145.749C83.2063 146.988 76.8746 147.029 74.1632 151.894C72.5426 154.908 74.0001 156.894 73.5647 159.908C52.0908 174.994 34.1455 230.57 38.1748 256.425C39.1441 265.677 43.8765 282.055 55.5573 280.013C61.515 286.532 161.513 286.532 171.824 280.013C180.312 282.234 188.936 278.796 192.496 270.664C197.016 259.512 192.226 247.469 191.377 236.03C190.861 233.142 190.094 230.849 189.684 227.893C189.513 226.661 190.103 224.611 189.684 223.475C189.882 222.736 192.496 219.499 192.496 217.789Z" fill="white"/>
<path fill-rule="evenodd" clip-rule="evenodd" d="M145.228 138.667C145.464 139.679 145.248 140.819 145.288 141.858C145.325 142.85 145.442 143.837 145.615 144.814C147.428 143.86 149.57 143.738 151.637 144.045C154.309 144.442 157.402 145.321 159.497 147.108C160.014 147.549 160.443 148.071 160.801 148.647C161.232 149.338 161.507 150.119 162.189 150.614C163.245 151.381 164.554 151.677 165.569 152.526C166.604 153.392 167.247 154.685 167.383 156.021C167.455 156.731 167.338 157.396 167.203 158.089C167.082 158.713 167.142 158.969 167.306 159.569C167.435 160.041 167.189 160.576 166.788 160.835C167.647 161.426 168.495 162.034 169.329 162.667C174.183 166.353 178.289 170.948 181.134 176.355L181.203 176.489L181.283 176.65C181.976 178.076 183.791 182.243 184.016 183.179C184.177 183.669 184.333 184.16 184.479 184.654C184.862 185.964 185.187 187.29 185.456 188.626L185.528 188.991C185.747 190.114 186.123 191.444 186.063 192.64C186.693 195.907 187.251 199.188 187.728 202.483C187.79 202.914 187.618 203.265 187.352 203.498C187.989 203.6 188.623 203.726 189.249 203.853L189.613 203.93L189.795 203.97C191.1 204.264 192.387 204.693 193.242 205.789C194.163 206.975 194.182 208.499 193.257 209.693C192.471 210.707 191.323 211.189 190.126 211.494C189.889 211.553 189.65 211.608 189.412 211.656C189.251 211.69 189.146 211.47 189.297 211.386L189.552 211.245L189.898 211.055C190.801 210.557 191.739 209.995 192.238 209.097C192.917 207.877 192.38 206.749 191.216 206.13C190.241 205.611 189.036 205.478 187.954 205.3L187.507 205.227C186.375 205.046 185.221 204.928 184.079 205.058C183.08 205.172 182.068 205.512 181.261 206.123L181.186 206.182L181.109 206.247C180.401 206.86 179.383 208.239 180.718 208.636C181.739 208.938 182.982 208.863 184.054 208.922L184.193 208.93C185.091 208.991 186.029 208.991 186.938 209.099C187.263 209.137 187.584 209.19 187.899 209.264C188.801 209.477 188.491 210.678 187.696 210.762C187.502 210.783 187.303 210.794 187.104 210.798C186.585 211.189 185.866 211.367 185.252 211.61C184.665 211.842 184.075 212.073 183.481 212.299C183.993 212.322 184.504 212.364 185.013 212.428C185.178 212.447 185.18 212.669 185.013 212.686C183.788 212.81 182.562 212.946 181.341 213.117C179.45 213.379 177.572 213.73 175.736 214.264C174.395 214.657 173.069 215.124 171.784 215.669L171.395 215.837L171.234 215.907C170.067 216.413 168.558 217.005 167.888 218.119C167.537 218.7 167.383 219.599 167.877 220.155C168.406 220.754 169.513 220.685 170.254 220.714L170.313 220.717C171.881 220.793 173.45 220.803 175.02 220.749C178.309 220.632 181.601 220.273 184.831 219.641C185.427 219.525 185.685 220.419 185.085 220.558C181.275 221.444 177.423 221.93 173.513 221.953L173.085 221.953C171.562 222.245 170.068 222.679 168.587 223.169L168.291 223.268C167.417 223.564 165.923 223.858 165.407 224.726C165.065 225.303 165.185 225.698 165.524 225.967C166.119 226.438 167.387 226.527 168.004 226.55C170.476 226.643 172.95 226.66 175.423 226.607C176.66 226.58 177.896 226.535 179.131 226.472C180.34 226.409 181.631 226.229 182.835 226.345C183.353 226.396 183.526 227.157 182.964 227.298C181.479 227.675 179.813 227.642 178.279 227.69L178.102 227.696C176.454 227.755 174.805 227.78 173.157 227.776C171.742 227.77 170.328 227.742 168.915 227.69L167.666 227.64L167.445 227.63C166.779 227.594 166.099 227.517 165.509 227.243C164.964 228.156 165.371 229.38 166.075 230.103C166.745 230.792 167.71 231.13 168.635 231.342C168.722 231.361 168.809 231.379 168.896 231.396C170.928 231.811 172.998 231.775 174.9 232.709C176.499 233.495 177.963 234.805 179.754 235.116C181.356 235.395 182.52 234.689 183.374 233.383C183.42 233.311 183.467 233.239 183.511 233.167C184.183 232.085 184.666 230.893 185.374 229.832C185.736 229.291 186.143 228.771 186.642 228.349C186.866 228.156 188.433 227.324 188.679 227.074C189.733 225.992 188.799 223.716 189.074 222.359C189.395 220.78 190.783 220.224 191.615 219.001C193.197 216.672 188.858 214.49 190.155 211.944C190.172 211.912 190.193 211.889 190.221 211.874C190.335 211.813 190.517 211.889 190.506 212.039C190.362 213.937 192.171 215.243 192.824 216.887C193.567 218.758 192.38 219.891 191.167 221.14C189.612 222.744 190.707 224.54 190.36 226.472C190.315 226.725 190.242 226.948 190.148 227.148C190.414 227.313 190.619 227.586 190.664 227.967C191.197 232.49 191.77 236.999 192.706 241.459L192.906 242.407L193.174 243.671C193.841 246.833 194.464 250.008 194.583 253.24C194.954 255.968 195.102 258.719 194.881 261.465C194.214 269.824 189.543 278.57 181.056 281.135C179.091 281.73 177.008 281.884 174.993 281.467C174.302 281.326 173.334 281.013 172.466 280.539C172.518 281.097 172.558 281.654 172.576 282.21C172.862 282.528 172.991 283.01 172.828 283.422C172.136 283.194 171.507 282.833 170.941 282.34L170.847 282.256C170.511 281.008 170.413 279.642 170.364 278.327L170.351 277.953C170.338 277.589 170.33 277.232 170.317 276.883C170.246 274.713 170.296 272.538 170.408 270.369L170.49 268.773C170.679 265.05 170.833 261.335 170.729 257.602C170.611 253.305 170.243 249.027 169.783 244.754C169.544 242.549 169.274 240.349 168.997 238.149C168.775 236.378 168.403 234.472 168.397 232.646C166.975 232.341 165.579 231.758 164.704 230.564C163.776 229.298 163.639 227.679 164.463 226.381C163.667 225.291 164.319 224.263 165.304 223.57C163.791 222.722 162.948 220.41 162.724 218.802C162.572 217.699 162.524 216.048 162.995 214.807C162.319 214.831 161.643 214.901 160.967 215.017C160.185 215.154 159.418 215.355 158.662 215.604L158.279 215.731C158.085 215.796 157.868 215.872 157.652 215.962C159.019 218.223 157.263 220.273 155.011 220.859C154.582 220.97 154.145 221.049 153.703 221.112C152.708 221.25 151.692 221.292 150.705 221.383C148.817 221.556 146.917 221.803 145.022 221.884C144.606 221.903 144.338 221.708 144.211 221.437C144.207 221.433 144.205 221.431 144.205 221.427C144.16 221.355 144.131 221.279 144.12 221.199C144.127 221.205 144.135 221.209 144.141 221.214C144.05 220.706 144.355 220.089 145.022 220.015C147.758 219.706 150.532 219.692 153.276 219.466L153.452 219.451C154.314 219.377 155.328 219.24 156.01 218.694C156.644 218.187 156.701 217.527 156.447 216.932C156.443 216.946 156.439 216.963 156.437 216.978C156.418 217.096 156.255 217.092 156.203 217.01C156.044 216.769 156.004 216.532 156.044 216.304C155.854 216.084 155.624 215.889 155.374 215.739C154.269 215.068 152.816 214.884 151.559 214.685C150.184 214.467 148.798 214.368 147.41 214.302C144.678 214.173 141.938 214.395 139.25 214.886C139.138 214.905 139.092 214.748 139.202 214.712C140.25 214.366 141.321 214.074 142.404 213.844C142.379 213.839 142.354 213.835 142.329 213.829C142.234 213.806 142.166 213.69 142.198 213.597C142.202 213.582 142.208 213.567 142.215 213.554C141.754 213.343 141.562 212.633 142.119 212.345C143.858 211.447 145.899 211.041 147.807 210.671C149.638 210.318 151.489 210.071 153.342 209.851C156.475 209.484 159.891 209.492 162.906 208.503L163.03 208.461C164.258 208.038 165.723 207.179 165.809 205.73C165.935 203.538 162.68 204.109 161.324 204.162C157.612 204.303 153.904 204.561 150.209 204.959C149.454 205.039 148.7 205.121 147.946 205.206C146.791 205.335 145.633 205.47 144.479 205.614C143.835 205.694 143.176 205.8 142.512 205.901C142.305 205.952 142.103 205.988 141.9 206.007C141.885 206.009 141.872 206.005 141.862 205.999C140.896 206.134 139.927 206.237 138.984 206.208C138.876 206.206 138.809 206.036 138.923 205.986C140.14 205.47 141.494 205.166 142.852 204.927C143.693 204.299 144.709 203.796 145.544 203.31C146.689 202.642 148.001 201.659 149.3 201.26C149.885 200.799 150.549 200.429 151.16 200.178C150.984 199.905 150.921 199.527 150.952 199.208C151.069 198.064 151.984 197.426 153.04 197.202C153.367 197.134 153.746 197.084 154.149 197.065C154.157 196.851 154.252 196.642 154.464 196.486L154.526 196.438L154.57 196.403C155.279 195.827 156.687 194.205 154.992 194.087C154.092 194.023 153.331 194.683 152.615 195.129C151.128 196.057 149.689 196.103 147.991 195.872L147.227 195.763L147.1 195.746C145.872 195.585 144.626 195.562 143.941 196.815C143.205 198.155 142.948 199.377 141.464 200.115C140.047 200.818 138.473 200.958 137.172 201.926C135.777 202.961 134.729 204.415 133.588 205.705C131.072 208.545 128.193 211.054 125.227 213.413L124.699 213.831C121.967 215.991 119.148 218.117 116.089 219.781C116.068 219.791 116.047 219.795 116.028 219.795C115.946 219.787 115.884 219.681 115.958 219.609C119.531 216.137 123.71 213.322 127.379 209.942C129.006 208.444 130.554 206.867 132.044 205.231C133.345 203.796 134.499 202.184 136.016 200.962C136.753 200.368 137.55 199.914 138.441 199.597C139.274 199.298 140.208 199.151 140.974 198.694C142.477 197.802 142.331 195.689 143.833 194.729C145.121 193.906 146.69 194.207 148.118 194.402L148.288 194.425C149.214 194.548 150.171 194.651 151.054 194.285C151.928 193.924 152.632 193.248 153.513 192.888C154.741 192.383 156.481 192.504 157.111 193.854C157.713 195.144 156.891 196.31 155.932 197.166C157.24 197.403 158.387 198.035 158.484 199.324C159.443 199.292 160.4 199.258 161.359 199.225C164.7 199.108 168.057 198.884 171.399 198.944C171.323 198.603 171.289 198.252 171.285 197.895C171.283 197.697 171.291 197.498 171.306 197.295C171.331 196.948 171.559 196.739 171.898 196.703L172.653 196.623L172.905 196.597C174.32 196.464 175.901 196.436 176.979 197.371C177.558 197.876 178.024 199.039 177.741 199.814C178.4 200.041 179.028 200.33 179.6 200.696C180.735 200.315 181.927 200.358 183.067 200.755L183.203 200.803C184.014 201.101 185.163 201.665 185.604 202.47C184.534 195.217 183.093 188.025 181.28 180.921C180.124 178.084 178.662 175.372 176.89 172.869C172.426 166.563 165.995 162.226 160.219 157.24C159.709 157.801 159.16 158.335 158.647 158.849L158.429 159.068C157.383 160.127 156.293 161.141 155.178 162.127C152.848 164.188 150.395 166.09 147.96 168.022C143.051 171.918 138.613 176.055 134.921 181.141C134.854 181.232 134.67 181.179 134.722 181.057C137.254 175.034 142.505 170.455 147.274 166.207C149.782 163.972 152.349 161.792 154.761 159.452C155.885 158.362 156.974 157.233 158.002 156.05L158.257 155.754C158.929 154.967 160.502 152.565 161.542 154.298C161.76 154.66 161.75 155.124 161.542 155.487C161.247 156.003 160.872 156.495 160.462 156.967C161.919 157.76 163.347 158.598 164.743 159.484C164.663 159.057 164.683 158.585 164.758 158.113L164.782 157.963L164.884 157.377C165.03 156.513 165.105 155.71 164.557 154.868C163.872 153.814 162.581 153.485 161.552 152.876C160.367 152.175 159.748 151.236 159.113 150.044C157.898 147.763 155.152 146.849 152.792 146.115L152.495 146.023C150.314 145.346 147.955 144.985 145.775 145.634C145.979 146.587 146.247 147.525 146.581 148.44C146.937 149.413 147.751 150.496 147.667 151.547C147.61 152.275 146.737 153.053 146.013 152.497C144.988 151.71 144.783 150.428 144.508 149.207C144.242 148.026 144.073 146.816 144 145.607C143.931 144.443 143.985 143.279 144.129 142.123L144.239 141.273L144.266 141.076C144.385 140.218 144.564 139.316 145.046 138.643C145.093 138.579 145.207 138.577 145.228 138.667ZM115.475 133.839C115.49 133.908 115.501 133.976 115.511 134.043C115.582 134.333 115.608 134.611 115.599 134.891C115.603 134.992 115.596 135.093 115.577 135.193C115.539 135.522 115.46 135.86 115.353 136.229C115.125 137.014 114.864 137.79 114.572 138.555C113.996 140.067 113.315 141.509 112.473 142.892C110.952 145.389 109.02 147.463 106.741 149.255C107.173 149.612 107.596 149.983 108.02 150.347C110.067 152.11 112.059 153.953 113.989 155.844C117.415 159.203 120.773 162.624 124.052 166.127C125.669 167.855 127.256 169.606 128.835 171.368L128.887 171.427L128.942 171.494C129.503 172.172 130.624 173.789 131.46 173.53C131.882 173.398 132.326 172.768 132.614 172.468L133.144 171.915C133.32 171.73 133.495 171.544 133.667 171.355C136.751 167.976 139.669 164.466 142.408 160.797C143.745 159.008 145.038 157.184 146.283 155.329C146.923 154.375 147.552 153.413 148.167 152.442C148.763 151.504 149.244 150.495 150.121 149.795C150.765 149.281 151.658 149.752 151.495 150.595C151.24 151.922 150.322 153.044 149.599 154.166C148.872 155.293 148.129 156.409 147.369 157.513C145.907 159.64 144.381 161.721 142.8 163.761C141.439 165.517 140.019 167.228 138.561 168.905L138.162 169.361C136.593 171.15 135.054 173.05 133.32 174.683C131.768 176.145 130.073 175.719 128.659 174.298C126.87 172.501 125.21 170.558 123.489 168.696C120.051 164.974 116.576 161.281 113.066 157.627L111.912 156.425C110.566 155.02 109.226 153.606 107.921 152.166L107.753 151.978C106.264 150.304 104.751 148.205 102.635 147.354C102.482 147.292 102.538 147.075 102.704 147.106C104.058 147.356 105.189 148.039 106.241 148.854C107.187 147.289 108.03 145.639 108.766 143.951L108.294 143.746C104.917 142.286 101.111 140.814 97.4856 141.051C96.0245 141.146 94.4655 141.7 93.4567 142.797C92.5432 143.791 92.0871 145.131 91.2488 146.19C90.2886 147.402 89.0362 147.948 87.4992 147.997L86.7518 148.02C85.8922 148.048 85.0679 148.093 84.196 148.282C81.8336 148.795 79.343 149.626 77.3617 151.046C76.643 151.56 75.901 152.268 75.5535 153.048C75.2089 153.821 75.1098 154.726 75.0762 155.56C75.06 155.967 75.1819 156.504 75.08 156.893C75.0917 156.848 75.0969 156.872 75.0984 156.918C75.4151 157.168 75.6308 157.583 75.6543 157.997C77.6292 156.968 79.6736 156.065 81.7578 155.252C84.0783 154.346 86.471 153.62 88.864 152.933C91.2061 152.261 93.6576 151.982 96.0452 151.503C96.3492 151.442 96.4548 151.853 96.1715 151.962C93.6621 152.926 91.234 154.069 88.7036 154.976C86.1745 155.883 83.6643 156.864 81.2085 157.955C76.4617 160.065 71.8766 162.749 68.1369 166.391C64.4845 169.948 61.6673 174.269 59.0471 178.613C56.4084 182.989 54.0534 187.523 51.9545 192.181C47.8022 201.396 44.6886 211.084 42.6386 220.98C40.6436 230.611 39.529 240.585 39.9002 250.428C40.0764 255.103 40.6472 259.782 41.9748 264.278C42.6091 266.427 43.403 268.525 44.4061 270.529C45.4639 272.642 46.8891 274.524 47.855 276.672C47.9345 276.849 47.9649 277.019 47.9605 277.176C52.0802 280.747 58.5285 278.341 62.9871 276.209C73.2462 271.302 83.3152 265.931 92.8857 259.768C102.331 253.685 111.283 246.897 120.023 239.85C119.347 239.153 118.751 238.371 118.227 237.663C117.146 236.2 116.332 234.543 115.772 232.814C115.117 230.79 114.914 228.623 115.1 226.508L115.153 225.91C115.331 223.912 115.537 221.885 115.975 219.933C115.979 219.907 115.998 219.897 116.019 219.897C116.04 219.897 116.062 219.91 116.07 219.933C117.251 223.714 117.346 227.778 118.673 231.511C119.207 233.011 120.035 234.461 121.029 235.706C121.458 236.245 121.96 236.712 122.473 237.168C122.508 236.936 122.554 236.706 122.623 236.479L122.679 236.3C122.748 236.083 122.833 235.841 122.951 235.627C122.784 235.579 122.622 235.526 122.461 235.467C122.334 235.421 122.307 235.216 122.461 235.182C122.881 235.085 123.315 235.036 123.756 235.015C123.826 235.004 123.893 235.002 123.961 235.006C124.787 234.981 125.628 235.04 126.424 235.053C127.804 235.074 129.179 235.099 130.557 235.161C133.193 235.275 136.17 235.78 138.765 235.167C141.122 234.609 143.446 233.036 145.337 231.557C146.989 230.264 148.263 228.727 149.634 227.195C149.536 227.21 149.438 227.225 149.341 227.238L148.457 227.36C147.341 227.509 146.016 227.626 145.13 227.089C144.792 226.884 144.889 226.419 145.234 226.292C146.138 225.961 147.26 226.235 148.223 226.189C148.979 226.153 149.744 226.073 150.49 225.916C150.735 225.865 150.978 225.806 151.219 225.737C152.985 225.227 155.06 223.435 153.657 221.478C153.604 221.404 153.663 221.336 153.735 221.323C153.767 221.317 153.8 221.323 153.828 221.347C155.425 222.67 154.595 225.041 153.084 226.058C152.565 226.409 151.977 226.654 151.369 226.833C151.485 227.047 151.506 227.309 151.366 227.558C150.184 229.668 148.181 231.521 146.304 233.011C144.378 234.541 142.155 235.985 139.766 236.661C137.007 237.439 133.975 236.854 131.176 236.606C129.659 236.473 128.146 236.314 126.631 236.139C126.226 236.093 125.805 236.057 125.378 236.017C125.78 236.545 126.099 237.154 126.308 237.519C126.988 238.707 126.361 240.271 125.043 240.634C124.905 240.673 124.764 240.694 124.624 240.698C124.269 241.41 123.424 241.934 122.643 241.666C122.303 241.55 121.975 241.391 121.66 241.201C116.744 245.521 111.568 249.574 106.244 253.375C96.3716 260.421 86.0235 266.857 75.2934 272.515C72.8765 273.789 70.4412 275.029 67.9852 276.221L65.8713 277.241C63.5314 278.367 61.1368 279.487 58.6519 280.186C58.1674 280.323 57.6602 280.433 57.1405 280.517C57.1337 280.564 57.132 280.608 57.1351 280.651C56.6678 280.713 56.2601 280.723 55.912 280.679L55.8327 280.669C52.7869 280.882 49.5289 280.138 47.5694 277.912C47.2428 278.141 46.7666 278.167 46.3464 277.837C44.2331 276.178 42.9733 273.652 41.8677 271.241C40.7467 268.795 39.8681 266.246 39.2224 263.635C37.9329 258.419 37.4214 253.039 37.3944 247.674C37.2969 227 42.4726 206.144 51.4624 187.583C53.7424 182.876 56.2557 178.256 59.0457 173.831C61.8281 169.418 65.059 165.317 69.1967 162.099C70.3865 161.173 71.6243 160.327 72.901 159.548C72.0441 159.123 71.7038 158.042 71.6438 157.083C71.5107 154.951 71.7646 152.495 73.0124 150.696C74.7627 148.172 77.896 146.616 80.8014 145.86C82.3181 145.465 83.8869 145.235 85.4514 145.157C86.258 145.117 87.0961 145.249 87.893 145.162C88.5961 145.086 89.0309 144.666 89.4353 144.114C90.4711 142.7 91.1455 141.216 92.6313 140.179C94.1558 139.115 96.1314 138.708 97.9679 138.818C100.107 138.947 102.059 139.79 103.944 140.76C105.644 141.634 107.295 142.603 108.904 143.636C109.199 142.945 109.477 142.248 109.735 141.55C110.236 140.194 110.672 138.796 111.026 137.395C111.384 135.975 111.332 134.099 112.415 133.031C113.356 132.102 115.17 132.467 115.475 133.839ZM188.464 228.622L188.456 228.624C186.266 229.922 185.218 233.167 184.187 234.586C184.271 235.061 184.331 235.545 184.447 235.995C184.713 237.029 185.062 238.054 185.465 239.039C186.175 240.778 187.065 242.435 187.886 244.122C188.548 245.478 189.196 246.859 189.7 248.287C189.645 248.341 189.594 248.406 189.552 248.487C189.005 249.511 188.577 249.31 187.568 249.086L187.567 249.084C186.99 247.317 186.158 245.658 185.41 243.963L185.228 243.549L185.049 243.135C184.424 241.684 183.853 240.22 183.521 238.665C183.31 237.674 183.223 236.655 183.211 235.642C182.664 236.093 182.007 236.416 181.179 236.541C179.407 236.808 177.802 235.698 176.358 234.807L176.033 234.608C175.129 234.058 174.232 233.55 173.19 233.29C172.007 232.994 170.784 232.994 169.582 232.844C169.438 232.825 169.293 232.806 169.147 232.783C169.616 234.336 169.833 236.023 170.112 237.578C170.501 239.76 170.818 241.96 171.122 244.154C171.714 248.406 172.126 252.692 172.335 256.98C172.537 261.133 172.435 265.269 172.285 269.42L172.21 271.444C172.15 273.092 172.101 274.742 172.13 276.391C172.21 276.397 172.29 276.41 172.371 276.429C173.203 276.623 173.771 277.473 174.532 277.851C176.138 278.65 178.077 278.64 179.786 278.236C183.674 277.314 186.906 274.6 189.035 271.285C191.592 267.307 192.53 262.625 192.5 257.942C192.465 252.671 191.612 247.631 190.424 242.542L190.348 242.218C189.348 237.978 188.722 228.662 188.464 228.622ZM79.6099 217.987C79.6321 219.405 79.0558 220.921 78.7391 222.299C78.3981 223.783 78.0579 225.267 77.7131 226.751L77.403 228.08C77.1448 229.188 76.8903 230.296 76.6621 231.411C76.4745 232.327 76.3959 233.535 76.0885 234.545C79.7449 233.065 83.407 231.601 87.063 230.126C91.5672 228.309 96.0926 226.542 100.607 224.754C105.105 222.974 109.578 220.949 114.167 219.428C115.259 219.064 115.998 220.808 114.952 221.292C110.292 223.454 105.361 225.147 100.586 227.041L93.6796 229.784C87.3481 232.297 81.0123 234.798 74.6447 237.213C70.3074 238.857 65.987 240.55 61.6222 242.112C59.5412 242.856 57.4414 243.56 55.3708 244.331C53.6362 244.978 51.7602 245.937 51.1179 247.801C51.0841 247.899 50.951 247.859 50.9658 247.759C51.2257 245.954 52.5653 244.826 54.0757 243.972C56.0803 242.836 58.2822 242.009 60.3982 241.098L60.6862 240.973C65.0073 239.088 69.3632 237.279 73.732 235.5C73.6887 235.394 73.6631 235.281 73.6612 235.163L73.6488 235.166C73.5693 234.358 73.9397 233.638 74.2061 232.886L74.9703 230.729C75.4794 229.293 75.9362 227.839 76.4067 226.39C76.8987 224.876 77.3954 223.363 77.8912 221.849C78.3112 220.568 78.5935 219.04 79.312 217.894C79.3986 217.756 79.6374 217.834 79.6099 217.987ZM163.755 214.799L163.701 215.074C163.637 215.396 163.578 215.721 163.563 216.046C163.521 216.898 163.618 217.749 163.844 218.572C164.066 219.385 164.376 220.172 164.818 220.892C165.236 221.571 165.843 222.103 166.229 222.799C166.269 222.873 166.295 222.946 166.305 223.019C166.453 222.957 166.599 222.902 166.741 222.858C167.919 222.484 169.124 222.171 170.345 221.936L170.151 221.923L170.026 221.913C167.986 221.741 166.061 221.073 166.477 218.69C166.712 217.343 167.769 216.44 168.901 215.799L169.043 215.721C169.104 215.687 169.168 215.653 169.229 215.623C168.204 215.45 167.461 215.237 166.204 215.025C165.388 214.888 164.571 214.812 163.755 214.799ZM70.5461 185.446C72.5523 189.501 74.0616 193.813 75.2003 198.187C75.7501 200.3 76.2166 202.433 76.5918 204.583L76.715 205.301L76.785 205.691C77.1354 207.607 77.5805 209.684 77.0658 211.554C76.8979 212.165 75.8838 212.407 75.5998 211.746C74.7434 209.751 74.8638 207.457 74.6155 205.322C74.3546 203.082 73.9986 200.852 73.555 198.641C72.7028 194.392 71.5067 190.242 70.1734 186.124L70.0247 185.666C69.9115 185.361 70.4046 185.16 70.5461 185.446ZM147.659 203.587C147.061 203.868 146.463 204.126 145.935 204.384C145.895 204.405 145.853 204.424 145.81 204.445C146.408 204.344 147.008 204.249 147.608 204.16C147.602 203.965 147.621 203.773 147.659 203.587ZM171.053 201.556C170.963 201.585 170.884 201.632 170.815 201.697L170.781 201.731C170.699 201.807 170.641 201.898 170.607 202.003C170.554 202.104 170.529 202.212 170.534 202.329L170.564 202.553C170.604 202.697 170.677 202.821 170.781 202.926L170.952 203.058C171.068 203.125 171.191 203.163 171.322 203.172L171.379 203.174L171.55 203.174C171.648 203.171 171.74 203.147 171.826 203.101C171.916 203.072 171.995 203.025 172.064 202.96L172.098 202.926C172.181 202.85 172.239 202.759 172.273 202.654C172.318 202.568 172.342 202.476 172.346 202.378L172.346 202.329L172.315 202.104C172.28 201.978 172.22 201.868 172.136 201.771L172.098 201.731L171.927 201.598C171.812 201.532 171.688 201.494 171.557 201.485L171.5 201.483H171.379C171.262 201.479 171.154 201.503 171.053 201.556ZM165.556 201.27C165.107 201.352 164.853 201.897 164.966 202.31C165.092 202.767 165.526 202.97 165.962 202.907L166.006 202.9C166.516 202.806 167.017 202.843 167.503 203.022C167.932 203.18 168.429 202.845 168.543 202.432C168.673 201.959 168.383 201.55 167.953 201.392C167.182 201.107 166.354 201.123 165.556 201.27ZM76.5468 171.247C77.5691 172.745 78.2073 174.738 78.837 176.45L78.8999 176.62C79.5692 178.42 80.2149 180.234 80.817 182.058C82.0189 185.699 83.5852 189.508 83.8747 193.354C83.9281 194.064 82.8424 194.348 82.5276 193.719C81.6232 191.911 81.1368 190.025 80.6017 188.086C80.0913 186.237 79.5595 184.395 79.0276 182.552C78.4958 180.71 77.9814 178.862 77.4576 177.018C76.9483 175.224 76.239 173.229 76.1224 171.362C76.1072 171.119 76.4294 171.074 76.5468 171.247ZM99.6192 159.182C100.984 160.129 102.101 161.515 103.256 162.7C104.428 163.903 105.584 165.117 106.729 166.345C108.642 168.397 110.521 170.483 112.461 172.51C116.328 176.55 120.703 180.267 126.04 182.166C127.332 182.626 126.766 184.699 125.471 184.23C120.012 182.25 115.49 178.589 111.501 174.448C109.435 172.303 107.54 170.011 105.691 167.678C104.826 166.587 103.968 165.492 103.122 164.386L102.615 163.721C101.551 162.317 100.249 160.917 99.4703 159.331C99.4266 159.242 99.5225 159.115 99.6192 159.182Z" fill="black"/>
<path fill-rule="evenodd" clip-rule="evenodd" d="M92.952 59.6854C94.0477 58.5092 95.449 57.633 96.9809 57.353C95.5806 58.0527 94.2118 58.7821 92.952 59.6854ZM90.806 69.8268C90.6123 68.9305 90.4821 68.0255 90.4411 67.1207C90.686 67.4931 91.077 67.7419 91.5163 67.8704C91.2325 68.5059 90.9913 69.1607 90.806 69.8268ZM164.12 83.8802C162.855 78.614 156.955 68.4846 155.561 66.535C154.046 61.7075 162.305 57.8361 157.814 54.0612C155.78 52.3579 153.092 51.7551 150.571 51.1511C133.114 46.9571 114.358 49.0722 98.1674 56.7846C95.7046 56.2662 93.1388 57.2794 91.3479 59.059C82.9342 67.5189 94.4005 82.783 96.9078 92.3204C101.21 102.955 92.3482 104.744 93.2985 113.742C94.0369 118.39 98.7433 119.619 102.715 120.321C103.351 120.47 104.202 120.493 104.408 121.166C105.051 125.095 107.257 128.839 110.219 131.381C109.96 132.148 110.158 133.08 111.071 133.754C119.346 139.906 129.78 142.985 140.101 142.431C152.4 141.772 158.761 134.719 160.296 132.903C168.782 121.438 167.768 106.311 166.037 92.6476C164.831 83.1293 166.36 93.2093 164.12 83.8802Z" fill="white"/>
<path fill-rule="evenodd" clip-rule="evenodd" d="M126.195 40.0596C126.581 38.8506 127.676 38.1236 128.929 38.2737C130.038 38.4047 131.225 39.5058 131.09 40.7211C131.064 40.9557 131.031 41.1755 130.99 41.3826L130.996 41.3845V41.3845L131.001 41.3847L130.974 41.465C130.891 41.8518 130.777 42.1984 130.608 42.526C130.393 43.1537 130.186 43.7836 129.981 44.4155C130.276 44.4028 130.579 44.4197 130.885 44.4768C131.202 43.6652 131.521 42.8557 131.838 42.042C132.178 41.1734 132.417 40.0575 133.088 39.3854C133.948 38.5273 135.44 38.3497 136.488 38.9627C137.595 39.6094 137.99 40.7591 137.749 41.9913C137.627 42.6198 137.207 43.0572 136.687 43.332L136.631 43.3609L136.232 44.3077C136.355 44.2549 136.481 44.2063 136.619 44.1661C136.834 44.1027 137.045 44.0625 137.252 44.0456C137.823 43.0121 138.45 42.0082 139.099 41.0233C139.845 39.8905 141.302 39.4086 142.526 40.1251C143.62 40.7655 144.207 42.4478 143.424 43.5532C142.828 44.3923 142.264 45.2482 141.708 46.1126C141.803 46.1295 141.898 46.1507 141.989 46.1782C142.031 46.1211 142.076 46.064 142.122 46.007C142.729 45.2546 143.434 44.6903 144.159 44.0647C144.837 43.4771 145.15 42.5535 146.041 42.1076C147.163 41.5475 148.515 41.8159 149.183 42.9318C150.615 45.3222 148.211 47.0679 146.673 48.5157C148.01 47.6809 149.402 46.9179 150.831 46.2585C151.633 45.8886 152.449 45.5314 153.277 45.2229C154.505 44.7663 155.498 44.9124 156.505 45.7618C156.955 46.1422 157.179 46.973 156.972 47.5266C156.571 48.5876 155.937 49.2322 154.826 49.5386C154.044 49.7542 153.243 49.9 152.462 50.1262C151.152 50.5024 149.88 50.961 148.646 51.5338C148.735 51.5887 148.819 51.6479 148.898 51.7155C149.819 51.4175 150.757 51.1597 151.699 50.9399C153.262 50.5733 154.852 50.3256 156.45 50.1707L156.98 50.1213C158.896 49.9374 161.199 49.5981 162.374 51.4323C162.761 52.0368 162.803 53.0344 162.374 53.6325C161.555 54.7822 160.739 55.0105 159.383 55.0316C160.718 55.1732 162.051 55.3486 163.378 55.5537C164.292 55.6932 165.207 55.8513 166.117 56.0267L166.572 56.1158C167.681 56.3378 168.919 56.4667 169.872 57.1092C171.951 58.5126 170.975 61.2453 168.672 61.537C167.559 61.6765 166.323 61.2052 165.231 60.9854C164.17 60.7719 163.105 60.5838 162.036 60.4189C161.483 60.3323 160.929 60.2562 160.374 60.1865C161.504 60.3492 162.626 60.5796 163.718 60.905L164.021 60.9966C166.133 61.6404 168.983 62.6658 169.642 64.9228C170.041 66.2945 168.949 67.4907 167.626 67.571C166.397 67.645 165.372 66.9116 164.329 66.3706C163.568 65.9775 162.795 65.6837 161.975 65.4322C161.128 65.1722 160.264 64.9566 159.393 64.7812C160.129 65.1866 160.845 65.6322 161.533 66.1307L161.849 66.3643C163.677 67.7267 166.464 69.836 165.82 72.3898C165.617 73.1951 164.719 73.9644 163.857 73.882C161.614 73.6727 160.376 71.2823 158.683 70.0016C158.242 69.6676 157.758 69.3379 157.251 69.0167C159.816 72.077 161.857 75.615 163.409 79.2693C166.822 87.3086 167.869 94.7536 167.894 103.398L167.895 103.665C167.899 108.433 167.791 113.288 167.326 118.035C166.895 122.421 166.105 126.749 164.117 130.721C160.786 137.38 154.293 142.567 147.133 144.541C139.167 146.739 130.262 145.02 123.736 139.948C122.071 138.654 124.279 135.846 125.979 137.04C132.771 141.806 141.556 143.315 149.352 140.09C155.536 137.532 160.515 132.031 162.626 125.697C163.969 121.667 164.36 117.37 164.839 113.171L164.871 112.891C165.379 108.499 165.672 104.078 165.668 99.6561C165.662 91.4452 164.483 84.6862 160.872 77.2382C159.174 73.7298 156.97 70.4858 154.338 67.6387C153.539 67.8014 152.69 67.5731 151.883 67.4865C151.471 67.4421 151.059 67.3998 150.647 67.3618C151.068 67.634 151.48 67.9171 151.886 68.2067L152.418 68.5906C154.083 69.7835 156.196 71.1423 155.768 73.4487C155.652 74.0722 155.031 74.6449 154.429 74.7865C152.246 75.3065 150.746 73.1845 149.271 71.9248C147.989 70.8301 146.648 69.8494 145.281 68.8666C144.97 68.6447 144.657 68.4228 144.343 68.203C144.638 68.5479 144.926 68.8982 145.207 69.2518L145.622 69.7779C146.877 71.3493 148.687 73.3919 147.569 75.429C147.252 76.0039 146.576 76.3865 145.921 76.3738C143.669 76.3273 142.773 73.7699 141.717 72.1552C140.808 70.7709 139.821 69.4668 138.801 68.1628C138.52 67.8056 138.237 67.4485 137.95 67.0913C133.219 67.3364 128.506 67.962 123.875 68.9617C120.693 69.6486 117.564 70.5386 114.459 71.5127L114.201 71.5949C112.52 72.1362 110.788 72.8291 109.576 74.0172C109.403 74.8358 109.536 75.6991 109.702 76.5167L109.831 77.1424C110.362 79.7591 110.724 82.3273 110.453 85.0138C110.172 87.7846 109.338 90.2764 108.319 92.8506C107.838 94.0638 107.339 93.844 107.168 95.1459C107.037 96.1376 107.118 97.1613 107.207 98.1613L107.282 99.009C107.47 101.23 107.564 103.651 106.109 105.483C105.883 105.764 105.4 105.652 105.239 105.371C105.176 105.259 105.108 105.151 105.034 105.048C104.333 104.031 103.257 103.452 102.028 103.228C101.871 103.2 101.933 102.991 102.064 102.974C103.103 102.852 104.088 103.112 104.924 103.649C104.528 102.276 101.456 102.944 100.446 103.21L100.412 103.219C99.1525 103.558 97.9609 104.107 96.9109 104.885C94.7982 106.449 93.5771 108.888 93.6384 111.515C93.6996 114.098 95.0327 116.484 97.3229 117.72C98.4278 118.316 99.6849 118.604 100.936 118.591C102.241 118.578 103.403 118.006 104.711 118.086C105.467 118.132 106.046 118.944 105.609 119.652C105.317 120.125 104.937 120.497 104.498 120.783C105.569 123.253 106.936 125.61 108.512 127.785C109.384 128.992 110.373 130.105 111.461 131.122C112.31 131.917 114.15 132.836 114.047 134.161C114.011 134.639 113.764 134.93 113.329 135.108C111.975 135.661 110.33 133.756 109.425 132.837L109.352 132.764C108.224 131.64 107.195 130.397 106.3 129.078C104.711 126.736 103.724 124.097 103.317 121.324C101.147 121.977 98.2736 121.364 96.5032 120.563C90.9384 118.048 89.1194 110.551 92.5018 105.559C93.1567 104.593 93.9764 103.767 94.9102 103.099C94.7053 102.987 94.513 102.843 94.3419 102.662C93.3953 101.656 92.726 100.343 92.0617 99.1329L91.982 98.9883C91.3924 97.923 90.8361 96.8411 90.3147 95.7425L90.1208 95.3298C88.9567 92.8253 87.9363 91.7305 87.106 89.0971C86.3074 86.5566 85.6778 83.9676 85.2701 81.3342L85.1617 80.6371C84.9259 79.1091 84.7029 77.4751 84.875 75.9236C83.6898 76.3104 82.4982 76.5492 81.3257 75.968C80.5525 75.5854 80.1257 74.4695 80.3898 73.6685C80.582 73.0788 80.9032 72.616 81.3109 72.2524C81.068 72.1299 80.8398 71.9735 80.6391 71.8002L80.4637 71.6482V71.6482C79.7539 71.0308 79.7032 69.8578 80.1341 69.0843C80.1764 69.0103 80.2187 68.9342 80.2588 68.8603C80.6687 68.1269 81.5158 67.6471 82.3525 67.6598C82.4877 67.6619 82.6229 67.6619 82.7602 67.6598C82.3694 67.5731 81.987 67.44 81.6236 67.216C79.9841 66.2078 80.1912 63.4751 82.175 62.9932C83.0074 62.7924 83.9264 62.8748 84.8433 63.0904C84.8095 63.0714 84.7757 63.0524 84.7419 63.0312C84.0489 62.6064 83.468 61.7758 83.5334 60.9241C83.6053 59.9814 83.9095 59.3094 84.7419 58.8148C85.4644 58.3879 86.487 58.3477 87.2053 58.8148C87.8285 59.2227 88.4391 59.6729 89.0264 60.1569C88.437 59.4319 87.9257 58.6436 87.7187 57.8067C87.463 56.7647 87.8898 55.6297 88.8278 55.0802C89.5757 54.6427 90.3658 54.6913 91.0715 55.0295C91.0334 54.4821 91.1665 53.9241 91.5299 53.4296C92.2736 52.4153 93.6257 51.8318 94.8025 52.5715C94.9567 52.6687 95.1637 52.8357 95.3644 53.0407C94.9736 51.7959 95.3264 50.4897 96.6595 49.9275C97.4729 49.583 98.5736 49.7563 99.2792 50.3502C98.8313 47.926 102.408 46.1443 103.798 48.6488C104.114 49.2162 104.426 49.8136 104.705 50.4248L104.808 50.6546L104.819 50.6503L104.748 50.4823V50.4823L104.675 50.3143C104.288 49.416 103.796 48.4819 103.661 47.5076C103.462 46.0661 104.105 44.6987 105.672 44.4874C106.481 44.3775 107.381 44.7452 107.924 45.3879C107.631 43.1516 110.128 41.5263 111.926 43.196C112.777 43.9865 113.231 45.1425 113.772 46.157C114.079 46.7298 114.391 47.3004 114.698 47.8753C114.776 47.7823 114.86 47.6893 114.949 47.5984C114.495 46.2373 114.142 44.8424 113.844 43.4391C113.561 42.116 114.222 40.7422 115.587 40.3684C116.827 40.0258 118.38 40.7911 118.657 42.112C118.851 43.0417 119.081 43.9613 119.335 44.8762C119.508 44.834 119.679 44.8044 119.848 44.7832C119.862 44.6113 119.878 44.4385 119.896 44.2666L119.963 43.6552C120.11 42.2583 120.259 40.6637 120.989 39.4762C122.233 37.4473 125.424 38.2885 125.457 40.6873C125.476 41.9279 124.971 43.158 124.796 44.3859C124.72 44.9206 124.676 45.4617 124.65 46.0027C124.99 44.2063 125.457 42.433 125.998 40.6873C126.062 40.478 126.129 40.2688 126.195 40.0596ZM98.6707 109.336C101.47 108.903 104.028 110.465 105.687 112.652C105.989 113.052 105.79 113.616 105.518 113.952C105.321 114.199 105.057 114.229 104.759 114.267C104.417 114.311 103.984 114.034 103.834 113.736C102.767 111.606 100.864 110.26 98.6707 109.431C98.6306 109.416 98.6179 109.344 98.6707 109.336ZM102.551 71.1652L102.636 71.0742C103.202 70.4864 102.307 69.5886 101.74 70.1776C101.142 70.7977 100.745 71.551 100.363 72.3144C99.9988 73.0423 101.092 73.6852 101.457 72.9545L101.624 72.6225C101.885 72.1061 102.164 71.596 102.551 71.1652V71.1652ZM94.6899 69.9589C95.4927 69.8236 95.1523 68.6014 94.3529 68.7362C93.3172 68.9108 92.2856 69.1092 91.2498 69.284C90.4472 69.4193 90.7875 70.6415 91.587 70.5069C92.6226 70.3321 93.6542 70.1337 94.6899 69.9589ZM142.514 61.6146C141.739 61.3556 141.406 62.58 142.177 62.8374C143.243 63.1931 144.3 63.5577 145.311 64.0516C146.042 64.4084 146.685 63.3151 145.951 62.9566C144.841 62.4145 143.684 62.0051 142.514 61.6146ZM94.5073 59.9711C93.7499 59.668 93.421 60.8941 94.1703 61.194L96.9084 62.2894V62.2894C97.6658 62.5925 97.9947 61.3666 97.2453 61.0667L94.5073 59.9711V59.9711ZM152.075 56.9937L151.975 56.9306C151.288 56.4855 150.652 57.5828 151.335 58.0256C151.736 58.2854 152.223 58.4616 152.59 58.7711L152.667 58.8395C153.26 59.3996 154.158 58.5047 153.563 57.9428C153.128 57.532 152.578 57.3033 152.075 56.9937V56.9937Z" fill="black"/>
<path fill-rule="evenodd" clip-rule="evenodd" d="M131.045 122.856C133.632 119.848 137.99 119.639 141.599 120.391C143.916 120.873 146.171 121.677 148.524 121.975C149.622 122.115 150.733 122.156 151.84 122.136C152.927 122.116 154.016 121.897 155.099 121.937C155.266 121.943 155.329 122.162 155.184 122.251C153.698 123.164 151.696 123.457 149.94 123.636C149.946 123.766 149.954 123.893 149.972 124C150.02 124.287 150.063 124.572 150.099 124.861C150.178 125.512 150.267 126.161 150.356 126.811C150.532 128.09 150.587 129.409 150.895 130.666L150.949 130.875C151.02 131.139 151.037 131.378 151.013 131.592L151.084 131.56L151.31 131.451L151.458 131.381C151.997 131.131 152.512 130.948 153.146 131.009C153.629 131.055 154.035 131.385 154.038 131.901C154.05 134.216 150.931 134.961 149.146 135.404L148.623 135.533C146.352 136.087 144.033 136.573 141.698 136.689C137.949 136.875 133.737 135.841 131.285 132.799C128.998 129.961 128.578 125.723 131.045 122.856ZM148.067 132.584C147.674 129.098 143.392 128.906 142.16 131.117C141.613 128.035 133.527 130.85 134.159 131.463C136.556 133.785 140.193 133.994 143.319 133.564C144.912 133.346 146.505 132.99 148.067 132.584ZM143.315 123.447L142.238 123.292L141.814 123.234C139.146 122.876 136.144 122.691 133.95 124.403C133.149 125.028 132.698 125.843 132.53 126.718C134.606 126.41 136.69 126.176 138.78 125.98L139.35 125.928C140.658 125.81 141.965 125.685 143.271 125.555L144.2 125.461L145.128 125.365C145.455 125.33 147.656 125.218 148.07 125.293C148.114 124.921 148.171 124.116 148.265 123.754C146.701 123.807 145.144 123.691 143.589 123.485L143.315 123.447ZM148.271 107.866C149.866 108.836 152.297 111.098 150.581 113.503C148.56 115.624 145.652 113.193 144.218 112.093C142.889 111.241 141.396 113.433 142.629 114.428C152.986 122.099 157.19 108.12 149.077 106.726C148.184 106.572 147.853 107.566 148.271 107.866ZM151.126 111.953L151.202 111.911L151.228 111.896C151.273 111.867 151.245 111.87 151.143 111.905L151.066 111.933V111.987C151.086 111.975 151.107 111.965 151.126 111.953ZM130.694 103.334L130.693 103.287C130.696 101.939 131.481 98.8616 133.421 98.8616C134.632 98.8616 135.368 100.956 135.495 103.115L135.5 103.203C135.556 104.545 135.188 107.479 133.421 107.479C131.635 107.479 130.712 104.7 130.694 103.334V103.334ZM159.248 102.911L159.248 102.864C159.245 101.516 158.46 98.4389 156.521 98.4389C155.34 98.4389 154.611 100.43 154.457 102.53L154.446 102.692C154.37 103.989 154.714 107.056 156.521 107.056C158.307 107.056 159.229 104.277 159.248 102.911V102.911ZM131.8 89.6727C133.383 89.4319 135.479 89.8893 136.217 91.4994C136.546 92.2167 136.156 93.0099 135.328 93.0496C133.325 93.1456 131.528 92.6996 129.77 94.0026C129.013 94.5634 128.377 95.34 127.843 96.1145L127.641 96.4093L127.474 96.6522C127.112 97.1853 126.768 97.7645 126.822 98.4078C126.838 98.5982 126.643 98.7789 126.458 98.7713C125.306 98.7239 125.182 97.2787 125.334 96.4107C125.615 94.7998 126.395 93.2876 127.475 92.0696C128.61 90.7905 130.107 89.9303 131.8 89.6727ZM153.601 91.6278C154.692 90.9259 156.088 90.6562 157.367 90.7595C159.888 90.9626 164.117 93.1066 163.561 96.187C163.389 97.137 162.068 97.6383 161.29 97.1112C160.453 96.5446 160.249 95.6639 159.626 94.9233C159.13 94.3318 158.5 93.9038 157.825 93.5392C157.161 93.1796 156.392 92.9617 155.637 92.8822L155.512 92.8703C155.058 92.8316 152.765 92.842 153.102 93.6981C153.168 93.8657 152.918 93.9985 152.804 93.8717C152.101 93.0939 152.897 92.0805 153.601 91.6278Z" fill="black"/>
</svg>
