<svg width="240" height="324" viewBox="0 0 240 324" fill="none" xmlns="http://www.w3.org/2000/svg">
<path fill-rule="evenodd" clip-rule="evenodd" d="M47.4644 286.051C75.0654 290.245 103.167 290.456 130.998 288.933C142.012 288.108 153.06 287.96 164.065 289.014C170.568 289.498 199.081 291.679 201.411 285.852C199.944 254.825 196.975 223.533 187.865 193.693C184.119 183.097 180.901 174.303 173.589 165.535C171.284 163.141 166.314 158.12 163.467 156.482C161 155.064 159.968 155.57 158.552 153.174C157.144 150.527 156.106 146.107 154.107 144.24C152.072 142.338 149.056 143.018 145.317 143.631C146.004 134.346 141.72 131.981 135.818 130.216C125.444 126.255 115.198 128.245 112.587 140.879C107.746 140.879 105.026 142.963 102.086 144.966C100.884 145.784 101.72 147.87 100.285 148.513C97.6288 149.459 92.9353 149.228 90.378 150.392C78.7491 155.686 68.3916 163.364 61.5895 174.576C46.3402 198.515 35.8651 248.942 37.6778 277.315C36.8836 278.561 37.9818 280.348 38.261 281.687C38.6133 282.853 39.7544 283.628 40.9453 283.495C42.6071 285.283 45.1774 285.681 47.4644 286.051Z" fill="white"/>
<path fill-rule="evenodd" clip-rule="evenodd" d="M161.709 155.78C161.54 155.686 161.689 155.444 161.859 155.524C170.045 159.365 176.324 166.105 180.743 173.892C185.318 181.955 187.926 191.11 190.174 200.058L190.255 200.382C192.652 209.954 194.691 219.625 196.526 229.319C198.384 239.137 199.876 249.015 201.076 258.934C201.67 263.838 202.199 268.751 202.612 273.674C202.818 276.135 203.005 278.597 203.174 281.06C203.241 282.045 203.304 283.03 203.359 284.016L203.398 284.755C203.431 285.426 203.511 286.099 203.345 286.76C203.202 287.331 202.9 287.847 202.635 288.371C202.109 289.406 200.67 289.236 200.104 288.371L199.939 288.119C199.564 287.539 199.252 287 199.134 286.277C199.021 285.578 199.016 284.845 198.965 284.139C198.871 282.839 198.791 281.539 198.7 280.239C198.508 277.502 198.293 274.767 198.055 272.034C197.583 266.639 197.078 261.249 196.457 255.869C195.354 246.308 193.969 236.772 192.337 227.286C190.742 218.02 188.727 208.848 186.624 199.688L186.406 198.74C182.724 182.746 177.048 164.327 161.709 155.78ZM74.5219 218.408C74.5821 218.248 74.8412 218.211 74.8849 218.408C75.4363 220.892 75.4908 223.45 75.5751 225.992C75.6581 228.501 75.6547 231.02 75.6182 233.53C75.4834 242.754 75.2303 251.97 75.0114 261.193C74.902 265.806 74.7993 270.42 74.7205 275.033C74.6907 276.764 74.6657 278.494 74.6449 280.225L74.6194 282.507C74.6068 283.516 74.5803 284.513 74.4573 285.521C74.3762 286.184 74.2033 286.816 73.8374 287.385C73.5777 287.788 73.2076 287.993 72.8469 288.267L72.7794 288.319C72.3193 288.683 71.8346 288.686 71.3789 288.319L71.2466 288.215C70.8113 287.874 70.4351 287.608 70.1571 287.069C69.7705 286.321 69.7086 285.507 69.6429 284.682C69.5432 283.431 69.6093 282.161 69.6222 280.906C69.648 278.389 69.6828 275.873 69.727 273.356C69.889 264.126 70.2093 254.894 70.7931 245.681C71.068 241.341 71.4409 236.987 71.9411 232.665L72.0364 231.855C72.1881 230.583 72.3264 229.289 72.4823 227.99C70.1548 226.353 68.1089 224.365 66.3642 222.111C66.2358 221.945 66.4473 221.713 66.6023 221.873C68.385 223.72 70.429 225.192 72.6919 226.349C73.0627 223.631 73.5725 220.928 74.5219 218.408ZM113.406 136.132C113.438 136.108 113.488 136.097 113.518 136.132C114.019 136.716 113.917 137.608 113.933 138.347L113.935 138.416C113.971 139.497 113.978 140.575 113.974 141.657L113.963 145.1V145.1C113.962 145.573 113.923 146.066 113.948 146.542L113.96 146.727V146.727C114.223 146.996 114.345 147.385 114.256 147.776C114.24 148.277 113.978 148.695 113.596 148.958L114.415 150.121V150.121L115.235 151.283C116.925 153.68 118.633 156.057 120.414 158.389C122.229 160.766 124.166 163.054 126.193 165.254C127.183 166.329 128.191 167.389 129.221 168.425C129.64 168.846 130.069 169.257 130.494 169.672L130.916 170.089C131.165 170.339 131.479 170.586 131.645 170.902C131.742 171.089 131.765 171.549 131.799 171.625C132.112 172.312 131.579 173.409 130.692 173.066L130.732 173.039C130.894 172.927 130.79 172.925 130.422 173.034C130.19 173.033 129.972 172.98 129.768 172.874L129.707 172.841C129.421 172.695 129.165 172.413 128.932 172.187L128.874 172.132C128.342 171.633 127.834 171.103 127.324 170.582C126.258 169.493 125.217 168.381 124.209 167.239C122.197 164.961 120.291 162.591 118.485 160.147C116.646 157.658 114.936 155.041 113.466 152.317C112.908 151.283 112.396 150.229 111.906 149.163C110.952 148.857 110.73 147.841 110.796 146.697C110.444 145.877 110.127 145.039 109.939 144.184C109.914 144.066 110.064 143.956 110.155 144.058C110.46 144.405 110.743 144.775 111.014 145.154C111.178 144.352 111.386 143.614 111.483 143.143L111.906 141.066V141.066C109.522 140.941 106.909 141.921 105.265 143.637C105.177 144.084 104.833 144.404 104.498 144.821C104.115 145.299 103.781 145.835 103.532 146.395C102.98 147.637 103.291 149.467 102.219 150.378C102.107 150.473 101.983 150.539 101.854 150.58C102.362 153.075 102.132 155.825 102.121 158.357L102.12 158.58C102.123 161.413 102.028 164.249 101.919 167.08L101.807 169.882C101.663 173.62 101.569 177.358 101.932 181.075C103.59 179.607 105.304 178.205 107.076 176.87C108.242 175.992 109.431 175.145 110.641 174.33L111.625 173.672C112.804 172.882 114.011 172.068 115.302 171.502C116.99 170.761 118.595 171.016 120.225 171.775C121.848 172.532 123.422 173.41 125.014 174.23C126.633 175.064 128.256 175.89 129.877 176.719C130.951 177.268 132.525 177.764 133.313 178.774C133.363 178.551 133.422 178.328 133.49 178.106C133.412 177.767 133.442 177.401 133.632 177.052C136.28 172.186 138.729 167.204 141.161 162.228C142.392 159.71 143.562 157.162 144.796 154.645L145.995 152.194C146.195 151.785 146.396 151.377 146.598 150.97C146.901 150.36 147.216 149.756 147.522 149.147C147.651 148.89 147.813 148.635 147.939 148.375L147.998 148.245C148.001 148.239 148.292 147.325 148.067 147.412L148.048 147.421C147.934 147.486 147.842 147.342 147.916 147.25C148.233 146.857 148.675 147.205 148.856 147.568C149.355 148.568 148.441 150.138 148.089 151.095L148.07 151.149C146.979 154.238 145.744 157.27 144.478 160.291C142.05 166.084 139.443 171.787 136.841 177.501L136.81 177.599V177.599C137.365 177.174 137.957 176.788 138.465 176.412C139.744 175.463 141.061 174.562 142.376 173.663C144.788 172.015 147.265 170.476 149.782 168.997L150.286 168.702C151.544 167.969 152.79 167.375 154.283 167.595C155.67 167.799 156.959 168.544 158.212 169.15L158.341 169.212L162.213 171.053C161.799 169.402 161.351 167.759 160.883 166.122C159.972 162.929 158.968 159.763 157.88 156.626C156.864 153.694 155.765 150.794 154.604 147.918L154.254 147.054C153.78 145.87 153.309 144.578 151.955 144.214C150.602 143.849 149.049 144.39 147.813 143.618C147.7 143.548 147.714 143.363 147.85 143.328L148.614 143.136C150.047 142.779 151.726 142.421 153.081 142.768C154.556 143.145 155.776 144.383 156.491 145.67C157.286 147.102 157.847 148.704 158.451 150.23L158.546 150.471C159.239 152.198 159.905 153.936 160.543 155.685C161.818 159.181 162.978 162.719 164.029 166.288C164.535 168.009 165.015 169.738 165.477 171.47C165.609 171.969 165.828 172.573 166.008 173.203C166.214 173.404 166.408 173.628 166.591 173.884C166.894 174.308 166.677 174.805 166.3 175.058C166.285 175.492 166.189 175.9 165.959 176.25C165.06 177.615 162.683 177.263 162.78 175.428C162.794 175.147 162.904 174.879 163.069 174.652L163.065 174.615V174.615L163.046 174.548V174.548C162.633 174.35 162.219 174.13 161.782 173.914L157.719 171.906V171.906C156.542 171.324 155.238 170.425 153.93 170.203C152.71 169.997 151.422 170.906 150.374 171.455L150.306 171.49C147.772 172.789 145.257 174.132 142.751 175.485C141.528 176.146 140.321 176.834 139.103 177.503C138.084 178.062 136.984 178.865 135.839 179.181C135.35 179.561 134.769 179.51 134.302 179.222C134.516 180.544 134.503 181.901 134.568 183.253C134.656 185.06 134.67 186.872 134.699 188.681L134.71 189.359C134.787 193.359 134.829 197.36 134.844 201.361C134.898 215.608 134.74 229.859 134.704 244.106C134.685 251.264 134.543 258.428 134.357 265.583C134.279 268.615 134.114 271.643 133.936 274.671L133.838 276.322C133.631 279.806 133.508 283.329 132.864 286.766C132.78 287.214 132.021 287.225 131.947 286.766C131.353 283.083 131.32 279.319 131.206 275.593L131.182 274.848C131.045 270.847 130.98 266.849 130.994 262.846C131.045 248.593 131.415 234.35 131.718 220.101C131.87 212.943 131.973 205.781 132.209 198.624C132.328 195.043 132.462 191.465 132.62 187.885C132.691 186.287 132.76 184.69 132.866 183.095L132.914 182.411C132.947 181.965 132.973 181.524 133.006 181.087C131.564 181.614 130.246 180.639 128.949 179.972C127.454 179.202 125.961 178.432 124.465 177.664L122.969 176.898V176.898L119.975 175.37C118.626 174.681 117.587 173.996 116.149 174.804C110.968 177.711 106.208 181.58 101.893 185.64C101.066 186.419 99.3175 186.21 99.1079 184.905C98.2127 179.33 98.7571 173.675 99.2142 168.084L99.3827 166.008C99.5868 163.528 99.8092 161.049 100.105 158.58C100.238 157.475 100.37 156.371 100.516 155.269L100.628 154.442C100.811 153.135 100.93 151.836 101.319 150.583C101.196 150.543 101.078 150.478 100.973 150.378C99.8027 149.268 100.367 147.341 100.901 146.02C101.428 144.716 102.232 143.578 103.238 142.599C103.458 142.385 103.767 142.247 104.078 142.24C106.519 140.622 109.197 139.815 111.984 140.698C112.062 140.324 112.142 139.95 112.226 139.577L112.311 139.204C112.528 138.279 112.609 136.751 113.406 136.132ZM138.422 282.222C139.179 282.013 140.008 282.233 140.563 282.788C141.118 283.343 141.338 284.173 141.129 284.93C141.025 285.303 140.836 285.627 140.563 285.902C140.308 286.155 140.011 286.336 139.671 286.445L139.592 286.468L139.468 286.52C139.088 286.622 138.708 286.622 138.329 286.52C137.966 286.418 137.651 286.234 137.384 285.969C137.118 285.701 136.934 285.386 136.833 285.023C136.731 284.643 136.731 284.263 136.833 283.883L136.884 283.76V283.76C136.989 283.387 137.177 283.063 137.45 282.788C137.725 282.515 138.049 282.326 138.422 282.222ZM183.394 206.719C183.518 206.576 183.72 206.759 183.643 206.911C182.463 209.225 181.148 211.522 179.856 213.777C179.959 214.402 180.062 215.022 180.18 215.626C180.684 218.202 181.3 220.731 181.702 223.331C183.147 232.676 183.898 242.124 184.541 251.553C185.187 261.017 185.27 270.484 185.367 279.966C185.375 280.788 184.743 281.743 183.896 281.898C183.509 281.969 183.219 281.955 182.832 281.898C181.951 281.768 181.399 280.758 181.362 279.966C181.109 274.667 180.769 269.374 180.375 264.083C179.677 254.702 179.251 245.297 178.687 235.907L178.488 232.625C178.275 229.069 178.08 225.51 178.017 221.949C177.974 219.589 178.1 217.23 178.023 214.874C177.951 212.698 177.731 210.332 178.21 208.194C178.228 208.114 178.355 208.094 178.391 208.171C178.89 209.22 179.206 210.362 179.449 211.527C180.734 209.901 182.042 208.272 183.394 206.719ZM99.2256 149.243C99.4061 149.23 99.3989 149.501 99.2256 149.521C96.704 149.814 94.2679 150.84 91.8869 151.713L91.683 151.787C89.2775 152.66 86.9322 153.676 84.6752 154.886C80.2625 157.252 76.2104 160.303 72.6277 163.796C58.3238 177.739 51.8051 197.846 47.0286 216.741C44.3747 227.239 42.4874 237.914 41.2642 248.672C40.6593 253.992 40.2317 259.332 39.9824 264.681C39.8548 267.422 39.7743 270.166 39.7407 272.91C39.7234 274.315 39.7183 275.721 39.72 277.127C39.7208 277.771 39.8358 278.582 39.6636 279.207C39.5039 279.787 39.0535 280.297 38.7203 280.779C38.3254 281.352 37.6158 281.322 37.2154 280.779L37.0678 280.582C36.6408 280.015 36.223 279.474 36.162 278.733C36.0968 277.939 36.1428 277.121 36.1399 276.324C36.1331 274.717 36.153 273.11 36.1851 271.504C36.247 268.426 36.3682 265.349 36.5485 262.275C36.9144 256.037 37.5167 249.811 38.3791 243.622C39.912 232.622 42.2098 221.726 45.2195 211.035C48.0589 200.949 51.4228 190.894 56.2147 181.552C60.664 172.878 66.5009 164.809 74.2029 158.747C77.7845 155.928 81.6835 153.579 85.887 151.809C88.0071 150.917 90.2335 150.188 92.4976 149.773C94.7366 149.362 96.9659 149.42 99.2256 149.243ZM138.856 264.395C139.256 264.392 139.702 264.48 140.045 264.701L140.503 265.056V265.056C140.627 265.215 140.751 265.375 140.874 265.536C141.161 265.91 141.199 266.514 141.139 266.96C141.125 267.257 141.037 267.534 140.874 267.79L140.525 268.242V268.242C140.19 268.516 139.91 268.711 139.504 268.843C139.291 268.911 139.087 268.926 138.883 268.915L138.815 268.911L138.856 268.916L138.784 268.908V268.908C138.718 268.903 138.651 268.896 138.585 268.886C138.539 268.881 138.494 268.877 138.448 268.871C138.404 268.867 138.362 268.866 138.318 268.87C137.802 268.918 137.283 268.625 136.916 268.289C136.586 267.986 136.289 267.343 136.335 266.887L136.355 266.696C136.39 266.375 136.418 266.248 136.554 265.925C136.687 265.611 136.872 265.334 137.123 265.1C137.605 264.652 138.195 264.4 138.856 264.395ZM137.257 240.875C137.943 240.128 139.12 240.073 139.97 240.525C140.177 240.635 140.367 240.812 140.549 240.96C141.009 241.332 141.19 242.003 141.215 242.568C141.24 243.127 140.946 243.791 140.549 244.177L140.453 244.27V244.27C140.216 244.501 139.877 244.701 139.546 244.762C139.011 244.86 138.563 244.857 138.065 244.647C137.638 244.467 137.269 244.177 137.019 243.783L136.978 243.716C136.961 243.689 136.945 243.661 136.929 243.632L136.907 243.589C136.431 242.673 136.559 241.636 137.257 240.875ZM137.612 217.232C137.921 217.135 138.23 217.121 138.539 217.19C138.749 217.191 138.945 217.244 139.126 217.349C139.323 217.404 139.494 217.504 139.639 217.648C139.813 217.751 139.953 217.89 140.056 218.065C140.262 218.29 140.4 218.553 140.472 218.856L140.555 219.474L140.472 220.092L140.238 220.648V220.648C140.173 220.732 140.108 220.816 140.043 220.9C139.939 221.075 139.8 221.215 139.625 221.319C139.511 221.432 139.38 221.517 139.234 221.575C138.717 221.946 138.027 222.068 137.414 221.898C137.05 221.797 136.733 221.612 136.465 221.346C136.199 221.077 136.014 220.761 135.913 220.397L135.871 220.106C135.817 219.716 135.808 219.5 135.918 219.004C135.967 218.785 136.107 218.478 136.181 218.348C136.495 217.796 137.009 217.417 137.612 217.232ZM164.45 200.222C165.338 200.215 166.225 200.217 167.113 200.227L167.778 200.236C168.892 200.253 169.847 200.138 170.723 200.912C171.359 201.473 171.079 202.415 170.475 202.838C169.561 203.478 168.414 203.156 167.362 203.086C166.254 203.011 165.144 202.95 164.034 202.9C161.885 202.804 159.735 202.742 157.583 202.733C155.437 202.724 153.287 202.744 151.14 202.779C148.956 202.814 146.682 203.018 144.51 202.792C144.212 202.76 144.145 202.368 144.439 202.266C146.486 201.558 148.788 201.328 150.933 201.057C153.145 200.778 155.357 200.58 157.583 200.452C159.87 200.32 162.16 200.238 164.45 200.222ZM137.608 193.265L137.681 193.267C138.072 193.268 138.438 193.36 138.779 193.543L138.851 193.583L139.32 193.945C139.607 194.235 139.806 194.576 139.916 194.969L139.999 195.585V195.585C140.011 195.904 139.944 196.202 139.799 196.478C139.706 196.765 139.546 197.014 139.32 197.224C139.11 197.45 138.862 197.61 138.574 197.703C138.319 197.837 138.046 197.904 137.755 197.905L137.681 197.903C137.263 197.902 136.873 197.796 136.512 197.587L136.043 197.224V197.224C135.756 196.935 135.557 196.594 135.447 196.201L135.364 195.585V195.585C135.352 195.266 135.419 194.968 135.564 194.692C135.657 194.404 135.817 194.156 136.043 193.945C136.253 193.72 136.501 193.56 136.789 193.466C137.044 193.332 137.317 193.265 137.608 193.265V193.265ZM144.478 138.807C144.978 138.083 145.882 138.727 145.753 139.308C145.787 140.942 145.871 142.527 146.242 144.127C146.412 144.86 146.635 145.593 146.979 146.264L147.123 146.547C147.568 147.426 147.914 148.255 147.314 149.22C147.032 149.675 146.522 150.016 145.968 149.993C143.514 149.887 143.177 146.47 143.028 144.562C142.874 142.598 143.353 140.439 144.478 138.807Z" fill="black"/>
<path fill-rule="evenodd" clip-rule="evenodd" d="M92.952 59.6854C94.0477 58.5092 95.449 57.633 96.9809 57.353C95.5806 58.0527 94.2118 58.7821 92.952 59.6854ZM90.806 69.8268C90.6123 68.9305 90.4821 68.0255 90.4411 67.1207C90.686 67.4931 91.077 67.7419 91.5163 67.8704C91.2325 68.5059 90.9913 69.1607 90.806 69.8268ZM164.12 83.8802C162.855 78.614 156.955 68.4846 155.561 66.535C154.046 61.7075 162.305 57.8361 157.814 54.0612C155.78 52.3579 153.092 51.7551 150.571 51.1511C133.114 46.9571 114.358 49.0722 98.1674 56.7846C95.7046 56.2662 93.1388 57.2794 91.3479 59.059C82.9342 67.5189 94.4005 82.783 96.9078 92.3204C101.21 102.955 92.3482 104.744 93.2985 113.742C94.0369 118.39 98.7433 119.619 102.715 120.321C103.351 120.47 104.202 120.493 104.408 121.166C105.051 125.095 107.257 128.839 110.219 131.381C109.96 132.148 110.158 133.08 111.071 133.754C119.346 139.906 129.78 142.985 140.101 142.431C152.4 141.772 158.761 134.719 160.296 132.903C168.782 121.438 167.768 106.311 166.037 92.6476C164.831 83.1293 166.36 93.2093 164.12 83.8802Z" fill="white"/>
<path fill-rule="evenodd" clip-rule="evenodd" d="M126.195 40.0596C126.581 38.8506 127.676 38.1236 128.929 38.2737C130.038 38.4047 131.225 39.5058 131.09 40.7211C131.064 40.9557 131.031 41.1755 130.99 41.3826L130.996 41.3845V41.3845L131.001 41.3847L130.974 41.465C130.891 41.8518 130.777 42.1984 130.608 42.526C130.393 43.1537 130.186 43.7836 129.981 44.4155C130.276 44.4028 130.579 44.4197 130.885 44.4768C131.202 43.6652 131.521 42.8557 131.838 42.042C132.178 41.1734 132.417 40.0575 133.088 39.3854C133.948 38.5273 135.44 38.3497 136.488 38.9627C137.595 39.6094 137.99 40.7591 137.749 41.9913C137.627 42.6198 137.207 43.0572 136.687 43.332L136.631 43.3609L136.232 44.3077C136.355 44.2549 136.481 44.2063 136.619 44.1661C136.834 44.1027 137.045 44.0625 137.252 44.0456C137.823 43.0121 138.45 42.0082 139.099 41.0233C139.845 39.8905 141.302 39.4086 142.526 40.1251C143.62 40.7655 144.207 42.4478 143.424 43.5532C142.828 44.3923 142.264 45.2482 141.708 46.1126C141.803 46.1295 141.898 46.1507 141.989 46.1782C142.031 46.1211 142.076 46.064 142.122 46.007C142.729 45.2546 143.434 44.6903 144.159 44.0647C144.837 43.4771 145.15 42.5535 146.041 42.1076C147.163 41.5475 148.515 41.8159 149.183 42.9318C150.615 45.3222 148.211 47.0679 146.673 48.5157C148.01 47.6809 149.402 46.9179 150.831 46.2585C151.633 45.8886 152.449 45.5314 153.277 45.2229C154.505 44.7663 155.498 44.9124 156.505 45.7618C156.955 46.1422 157.179 46.973 156.972 47.5266C156.571 48.5876 155.937 49.2322 154.826 49.5386C154.044 49.7542 153.243 49.9 152.462 50.1262C151.152 50.5024 149.88 50.961 148.646 51.5338C148.735 51.5887 148.819 51.6479 148.898 51.7155C149.819 51.4175 150.757 51.1597 151.699 50.9399C153.262 50.5733 154.852 50.3256 156.45 50.1707L156.98 50.1213C158.896 49.9374 161.199 49.5981 162.374 51.4323C162.761 52.0368 162.803 53.0344 162.374 53.6325C161.555 54.7822 160.739 55.0105 159.383 55.0316C160.718 55.1732 162.051 55.3486 163.378 55.5537C164.292 55.6932 165.207 55.8513 166.117 56.0267L166.572 56.1158C167.681 56.3378 168.919 56.4667 169.872 57.1092C171.951 58.5126 170.975 61.2453 168.672 61.537C167.559 61.6765 166.323 61.2052 165.231 60.9854C164.17 60.7719 163.105 60.5838 162.036 60.4189C161.483 60.3323 160.929 60.2562 160.374 60.1865C161.504 60.3492 162.626 60.5796 163.718 60.905L164.021 60.9966C166.133 61.6404 168.983 62.6658 169.642 64.9228C170.041 66.2945 168.949 67.4907 167.626 67.571C166.397 67.645 165.372 66.9116 164.329 66.3706C163.568 65.9775 162.795 65.6837 161.975 65.4322C161.128 65.1722 160.264 64.9566 159.393 64.7812C160.129 65.1866 160.845 65.6322 161.533 66.1307L161.849 66.3643C163.677 67.7267 166.464 69.836 165.82 72.3898C165.617 73.1951 164.719 73.9644 163.857 73.882C161.614 73.6727 160.376 71.2823 158.683 70.0016C158.242 69.6676 157.758 69.3379 157.251 69.0167C159.816 72.077 161.857 75.615 163.409 79.2693C166.822 87.3086 167.869 94.7536 167.894 103.398L167.895 103.665C167.899 108.433 167.791 113.288 167.326 118.035C166.895 122.421 166.105 126.749 164.117 130.721C160.786 137.38 154.293 142.567 147.133 144.541C139.167 146.739 130.262 145.02 123.736 139.948C122.071 138.654 124.279 135.846 125.979 137.04C132.771 141.806 141.556 143.315 149.352 140.09C155.536 137.532 160.515 132.031 162.626 125.697C163.969 121.667 164.36 117.37 164.839 113.171L164.871 112.891C165.379 108.499 165.672 104.078 165.668 99.6561C165.662 91.4452 164.483 84.6862 160.872 77.2382C159.174 73.7298 156.97 70.4858 154.338 67.6387C153.539 67.8014 152.69 67.5731 151.883 67.4865C151.471 67.4421 151.059 67.3998 150.647 67.3618C151.068 67.634 151.48 67.9171 151.886 68.2067L152.418 68.5906C154.083 69.7835 156.196 71.1423 155.768 73.4487C155.652 74.0722 155.031 74.6449 154.429 74.7865C152.246 75.3065 150.746 73.1845 149.271 71.9248C147.989 70.8301 146.648 69.8494 145.281 68.8666C144.97 68.6447 144.657 68.4228 144.343 68.203C144.638 68.5479 144.926 68.8982 145.207 69.2518L145.622 69.7779C146.877 71.3493 148.687 73.3919 147.569 75.429C147.252 76.0039 146.576 76.3865 145.921 76.3738C143.669 76.3273 142.773 73.7699 141.717 72.1552C140.808 70.7709 139.821 69.4668 138.801 68.1628C138.52 67.8056 138.237 67.4485 137.95 67.0913C133.219 67.3364 128.506 67.962 123.875 68.9617C120.693 69.6486 117.564 70.5386 114.459 71.5127L114.201 71.5949C112.52 72.1362 110.788 72.8291 109.576 74.0172C109.403 74.8358 109.536 75.6991 109.702 76.5167L109.831 77.1424C110.362 79.7591 110.724 82.3273 110.453 85.0138C110.172 87.7846 109.338 90.2764 108.319 92.8506C107.838 94.0638 107.339 93.844 107.168 95.1459C107.037 96.1376 107.118 97.1613 107.207 98.1613L107.282 99.009C107.47 101.23 107.564 103.651 106.109 105.483C105.883 105.764 105.4 105.652 105.239 105.371C105.176 105.259 105.108 105.151 105.034 105.048C104.333 104.031 103.257 103.452 102.028 103.228C101.871 103.2 101.933 102.991 102.064 102.974C103.103 102.852 104.088 103.112 104.924 103.649C104.528 102.276 101.456 102.944 100.446 103.21L100.412 103.219C99.1525 103.558 97.9609 104.107 96.9109 104.885C94.7982 106.449 93.5771 108.888 93.6384 111.515C93.6996 114.098 95.0327 116.484 97.3229 117.72C98.4278 118.316 99.6849 118.604 100.936 118.591C102.241 118.578 103.403 118.006 104.711 118.086C105.467 118.132 106.046 118.944 105.609 119.652C105.317 120.125 104.937 120.497 104.498 120.783C105.569 123.253 106.936 125.61 108.512 127.785C109.384 128.992 110.373 130.105 111.461 131.122C112.31 131.917 114.15 132.836 114.047 134.161C114.011 134.639 113.764 134.93 113.329 135.108C111.975 135.661 110.33 133.756 109.425 132.837L109.352 132.764C108.224 131.64 107.195 130.397 106.3 129.078C104.711 126.736 103.724 124.097 103.317 121.324C101.147 121.977 98.2736 121.364 96.5032 120.563C90.9384 118.048 89.1194 110.551 92.5018 105.559C93.1567 104.593 93.9764 103.767 94.9102 103.099C94.7053 102.987 94.513 102.843 94.3419 102.662C93.3953 101.656 92.726 100.343 92.0617 99.1329L91.982 98.9883C91.3924 97.923 90.8361 96.8411 90.3147 95.7425L90.1208 95.3298C88.9567 92.8253 87.9363 91.7305 87.106 89.0971C86.3074 86.5566 85.6778 83.9676 85.2701 81.3342L85.1617 80.6371C84.9259 79.1091 84.7029 77.4751 84.875 75.9236C83.6898 76.3104 82.4982 76.5492 81.3257 75.968C80.5525 75.5854 80.1257 74.4695 80.3898 73.6685C80.582 73.0788 80.9032 72.616 81.3109 72.2524C81.068 72.1299 80.8398 71.9735 80.6391 71.8002L80.4637 71.6482V71.6482C79.7539 71.0308 79.7032 69.8578 80.1341 69.0843C80.1764 69.0103 80.2187 68.9342 80.2588 68.8603C80.6687 68.1269 81.5158 67.6471 82.3525 67.6598C82.4877 67.6619 82.6229 67.6619 82.7602 67.6598C82.3694 67.5731 81.987 67.44 81.6236 67.216C79.9841 66.2078 80.1912 63.4751 82.175 62.9932C83.0074 62.7924 83.9264 62.8748 84.8433 63.0904C84.8095 63.0714 84.7757 63.0524 84.7419 63.0312C84.0489 62.6064 83.468 61.7758 83.5334 60.9241C83.6053 59.9814 83.9095 59.3094 84.7419 58.8148C85.4644 58.3879 86.487 58.3477 87.2053 58.8148C87.8285 59.2227 88.4391 59.6729 89.0264 60.1569C88.437 59.4319 87.9257 58.6436 87.7187 57.8067C87.463 56.7647 87.8898 55.6297 88.8278 55.0802C89.5757 54.6427 90.3658 54.6913 91.0715 55.0295C91.0334 54.4821 91.1665 53.9241 91.5299 53.4296C92.2736 52.4153 93.6257 51.8318 94.8025 52.5715C94.9567 52.6687 95.1637 52.8357 95.3644 53.0407C94.9736 51.7959 95.3264 50.4897 96.6595 49.9275C97.4729 49.583 98.5736 49.7563 99.2792 50.3502C98.8313 47.926 102.408 46.1443 103.798 48.6488C104.114 49.2162 104.426 49.8136 104.705 50.4248L104.808 50.6546L104.819 50.6503L104.748 50.4823V50.4823L104.675 50.3143C104.288 49.416 103.796 48.4819 103.661 47.5076C103.462 46.0661 104.105 44.6987 105.672 44.4874C106.481 44.3775 107.381 44.7452 107.924 45.3879C107.631 43.1516 110.128 41.5263 111.926 43.196C112.777 43.9865 113.231 45.1425 113.772 46.157C114.079 46.7298 114.391 47.3004 114.698 47.8753C114.776 47.7823 114.86 47.6893 114.949 47.5984C114.495 46.2373 114.142 44.8424 113.844 43.4391C113.561 42.116 114.222 40.7422 115.587 40.3684C116.827 40.0258 118.38 40.7911 118.657 42.112C118.851 43.0417 119.081 43.9613 119.335 44.8762C119.508 44.834 119.679 44.8044 119.848 44.7832C119.862 44.6113 119.878 44.4385 119.896 44.2666L119.963 43.6552C120.11 42.2583 120.259 40.6637 120.989 39.4762C122.233 37.4473 125.424 38.2885 125.457 40.6873C125.476 41.9279 124.971 43.158 124.796 44.3859C124.72 44.9206 124.676 45.4617 124.65 46.0027C124.99 44.2063 125.457 42.433 125.998 40.6873C126.062 40.478 126.129 40.2688 126.195 40.0596ZM98.6707 109.336C101.47 108.903 104.028 110.465 105.687 112.652C105.989 113.052 105.79 113.616 105.518 113.952C105.321 114.199 105.057 114.229 104.759 114.267C104.417 114.311 103.984 114.034 103.834 113.736C102.767 111.606 100.864 110.26 98.6707 109.431C98.6306 109.416 98.6179 109.344 98.6707 109.336ZM102.551 71.1652L102.636 71.0742C103.202 70.4864 102.307 69.5886 101.74 70.1776C101.142 70.7977 100.745 71.551 100.363 72.3144C99.9988 73.0423 101.092 73.6852 101.457 72.9545L101.624 72.6225C101.885 72.1061 102.164 71.596 102.551 71.1652V71.1652ZM94.6899 69.9589C95.4927 69.8236 95.1523 68.6014 94.3529 68.7362C93.3172 68.9108 92.2856 69.1092 91.2498 69.284C90.4472 69.4193 90.7875 70.6415 91.587 70.5069C92.6226 70.3321 93.6542 70.1337 94.6899 69.9589ZM142.514 61.6146C141.739 61.3556 141.406 62.58 142.177 62.8374C143.243 63.1931 144.3 63.5577 145.311 64.0516C146.042 64.4084 146.685 63.3151 145.951 62.9566C144.841 62.4145 143.684 62.0051 142.514 61.6146ZM94.5073 59.9711C93.7499 59.668 93.421 60.8941 94.1703 61.194L96.9084 62.2894V62.2894C97.6658 62.5925 97.9947 61.3666 97.2453 61.0667L94.5073 59.9711V59.9711ZM152.075 56.9937L151.975 56.9306C151.288 56.4855 150.652 57.5828 151.335 58.0256C151.736 58.2854 152.223 58.4616 152.59 58.7711L152.667 58.8395C153.26 59.3996 154.158 58.5047 153.563 57.9428C153.128 57.532 152.578 57.3033 152.075 56.9937V56.9937Z" fill="black"/>
<path fill-rule="evenodd" clip-rule="evenodd" d="M131.045 122.856C133.632 119.848 137.99 119.639 141.599 120.391C143.916 120.873 146.171 121.677 148.524 121.975C149.622 122.115 150.733 122.156 151.84 122.136C152.927 122.116 154.016 121.897 155.099 121.937C155.266 121.943 155.329 122.162 155.184 122.251C153.698 123.164 151.696 123.457 149.94 123.636C149.946 123.766 149.954 123.893 149.972 124C150.02 124.287 150.063 124.572 150.099 124.861C150.178 125.512 150.267 126.161 150.356 126.811C150.532 128.09 150.587 129.409 150.895 130.666L150.949 130.875C151.02 131.139 151.037 131.378 151.013 131.592L151.084 131.56L151.31 131.451L151.458 131.381C151.997 131.131 152.512 130.948 153.146 131.009C153.629 131.055 154.035 131.385 154.038 131.901C154.05 134.216 150.931 134.961 149.146 135.404L148.623 135.533C146.352 136.087 144.033 136.573 141.698 136.689C137.949 136.875 133.737 135.841 131.285 132.799C128.998 129.961 128.578 125.723 131.045 122.856ZM148.067 132.584C147.674 129.098 143.392 128.906 142.16 131.117C141.613 128.035 133.527 130.85 134.159 131.463C136.556 133.785 140.193 133.994 143.319 133.564C144.912 133.346 146.505 132.99 148.067 132.584ZM143.315 123.447L142.238 123.292L141.814 123.234C139.146 122.876 136.144 122.691 133.95 124.403C133.149 125.028 132.698 125.843 132.53 126.718C134.606 126.41 136.69 126.176 138.78 125.98L139.35 125.928C140.658 125.81 141.965 125.685 143.271 125.555L144.2 125.461L145.128 125.365C145.455 125.33 147.656 125.218 148.07 125.293C148.114 124.921 148.171 124.116 148.265 123.754C146.701 123.807 145.144 123.691 143.589 123.485L143.315 123.447ZM148.271 107.866C149.866 108.836 152.297 111.098 150.581 113.503C148.56 115.624 145.652 113.193 144.218 112.093C142.889 111.241 141.396 113.433 142.629 114.428C152.986 122.099 157.19 108.12 149.077 106.726C148.184 106.572 147.853 107.566 148.271 107.866ZM151.126 111.953L151.202 111.911L151.228 111.896C151.273 111.867 151.245 111.87 151.143 111.905L151.066 111.933V111.987C151.086 111.975 151.107 111.965 151.126 111.953ZM130.694 103.334L130.693 103.287C130.696 101.939 131.481 98.8616 133.421 98.8616C134.632 98.8616 135.368 100.956 135.495 103.115L135.5 103.203C135.556 104.545 135.188 107.479 133.421 107.479C131.635 107.479 130.712 104.7 130.694 103.334V103.334ZM159.248 102.911L159.248 102.864C159.245 101.516 158.46 98.4389 156.521 98.4389C155.34 98.4389 154.611 100.43 154.457 102.53L154.446 102.692C154.37 103.989 154.714 107.056 156.521 107.056C158.307 107.056 159.229 104.277 159.248 102.911V102.911ZM131.8 89.6727C133.383 89.4319 135.479 89.8893 136.217 91.4994C136.546 92.2167 136.156 93.0099 135.328 93.0496C133.325 93.1456 131.528 92.6996 129.77 94.0026C129.013 94.5634 128.377 95.34 127.843 96.1145L127.641 96.4093L127.474 96.6522C127.112 97.1853 126.768 97.7645 126.822 98.4078C126.838 98.5982 126.643 98.7789 126.458 98.7713C125.306 98.7239 125.182 97.2787 125.334 96.4107C125.615 94.7998 126.395 93.2876 127.475 92.0696C128.61 90.7905 130.107 89.9303 131.8 89.6727ZM153.601 91.6278C154.692 90.9259 156.088 90.6562 157.367 90.7595C159.888 90.9626 164.117 93.1066 163.561 96.187C163.389 97.137 162.068 97.6383 161.29 97.1112C160.453 96.5446 160.249 95.6639 159.626 94.9233C159.13 94.3318 158.5 93.9038 157.825 93.5392C157.161 93.1796 156.392 92.9617 155.637 92.8822L155.512 92.8703C155.058 92.8316 152.765 92.842 153.102 93.6981C153.168 93.8657 152.918 93.9985 152.804 93.8717C152.101 93.0939 152.897 92.0805 153.601 91.6278Z" fill="black"/>
</svg>
