<svg width="333" height="447" viewBox="0 0 333 447" fill="none" xmlns="http://www.w3.org/2000/svg">
<path fill-rule="evenodd" clip-rule="evenodd" d="M270.059 347.576C268.877 340.938 267.794 334.283 266.81 327.613C266.342 324.447 265.887 321.277 265.477 318.103C265.19 315.878 264.753 313.335 266.274 311.688C268.415 309.369 270.359 307.384 270.622 304.063C270.868 300.938 269.806 297.531 269.142 294.498C267.749 288.137 266.014 281.854 264.098 275.631C262.151 269.309 260.017 263.046 257.851 256.795C255.827 250.95 253.881 245.053 251.244 239.446C246.24 228.804 237.774 220.924 227.312 215.662C224.71 214.353 219.402 209.681 216.684 208.635C214.185 207.674 214.194 210.482 211.734 209.424C209.768 208.578 207.937 207.451 206.836 205.562C205.64 203.512 202.642 200.644 202.186 198.257C201.219 193.197 202.267 188.891 198.636 185.083C195.414 181.702 191.082 179.385 186.6 178.141C176.74 175.406 163.591 177.318 157.642 186.432C154.801 190.784 153.808 196.045 149.974 199.597C146.626 202.698 147.375 204.819 143.039 206.417C142.793 206.508 136.137 205.087 135.891 205.178C131.148 204.169 126.614 206.995 122.262 208.635C115.774 211.08 109.598 214.262 103.794 218.044C92.0928 225.671 82.0705 235.574 73.808 246.781C65.4771 258.079 59.0132 270.744 54.4107 283.98C53.293 287.195 52.289 290.449 51.4035 293.735C50.9078 295.574 50.3781 297.481 50.9816 299.364C51.4753 300.904 52.5734 302.051 53.8628 302.975C55.6108 304.228 59.117 305.042 59.0487 307.562C58.9965 309.478 58.3431 311.494 58.0242 313.387C57.6446 315.642 57.3327 317.91 57.0208 320.175C55.602 330.482 54.4978 340.848 54.0094 351.243C53.5287 361.478 53.1297 371.922 53.8435 382.154C53.8907 382.829 54.093 383.448 54.4192 383.972C54.1146 384.088 54.0912 384.653 54.4702 384.733C54.7358 384.789 55.0008 384.844 55.2664 384.9C55.818 385.316 56.506 385.57 57.2978 385.595C57.8345 385.612 58.371 385.636 58.9071 385.663C64.5649 386.84 70.2218 387.951 75.9534 388.793C82.9206 389.815 89.9083 390.649 96.9178 391.327C111.321 392.72 125.611 392.258 140.033 391.507C154.433 390.758 168.824 390.582 183.239 390.955C197.666 391.329 212.089 391.953 226.519 392.208C242.641 392.493 258.739 392.055 274.814 390.781C277.018 390.606 278.382 388.862 277.947 386.684C275.343 373.638 272.391 360.679 270.059 347.576Z" fill="white"/>
<path fill-rule="evenodd" clip-rule="evenodd" d="M131.393 204.857C132.884 204.793 134.404 205.033 135.891 205.178C136.021 205.191 136.07 205.389 135.924 205.42C133.262 205.973 130.63 206.73 128.015 207.498L126.896 207.828C123.948 208.695 121.086 209.59 118.233 210.747C112.545 213.053 107.142 216.165 102.171 219.741C83.0254 233.51 69.1689 254.356 60.4248 275.94C58.0501 281.801 56.038 287.809 54.4082 293.917C54.0119 295.403 53.639 296.895 53.2855 298.392C53.1817 298.831 52.7294 299.955 52.9774 300.404C53.1967 300.8 54.0491 301.046 54.4451 301.252L55.7821 301.942C58.3901 303.279 62.7343 305.476 63.17 305.691L63.8494 306.023C74.9623 311.443 86.8363 316.038 99.3418 316.356L99.4397 315.294V315.294C99.9972 309.421 100.729 303.517 102.326 297.825C102.412 297.519 102.803 297.622 102.839 297.894C103.729 304.632 103.444 311.424 103.134 318.194C102.584 330.184 101.854 342.168 101.206 354.154C100.881 360.15 100.461 366.142 100.082 372.134C99.7023 378.139 99.5795 384.288 98.7127 390.243C98.5195 391.57 96.9566 392.292 95.7729 392.152C94.4632 391.997 93.4557 390.85 93.4495 389.534C93.4337 386.065 93.8719 382.555 94.1155 379.095C94.3468 375.807 94.5951 372.52 94.8495 369.234C95.7793 357.241 96.849 345.262 97.8383 333.274C98.1889 329.022 98.5676 324.774 98.9575 320.526C85.7099 320.101 73.3335 315.22 61.5266 309.518C61.3558 313.377 60.943 317.23 60.5435 321.074C59.4281 331.8 58.4446 342.522 57.7086 353.282C57.3369 358.716 57.0663 364.157 56.8306 369.598C56.7149 372.273 56.6205 374.948 56.5481 377.624C56.5238 378.516 56.5019 379.408 56.4826 380.3L56.4423 382.343C56.4093 383.638 56.277 384.837 55.1818 385.78C54.0693 386.737 52.5667 386.788 51.4657 385.78C49.9918 384.43 50.2524 382.591 50.2961 380.778C50.3325 379.248 50.3761 377.719 50.4268 376.19C50.5286 373.133 50.6584 370.076 50.8164 367.02C51.3693 356.338 52.474 345.698 53.9177 335.101L54.4812 331.01C55.5337 323.405 56.6891 315.628 59.0418 308.302C58.1257 307.849 57.2123 307.393 56.3024 306.935C54.6884 306.122 53.0196 305.359 51.4508 304.462C50.2061 303.75 49.1327 302.774 48.7862 301.333C48.3998 299.728 48.9906 297.972 49.3832 296.406L49.4173 296.269C49.8022 294.692 50.2167 293.122 50.654 291.559C52.4275 285.22 54.6204 279.005 57.1868 272.941C62.3254 260.802 68.9582 249.269 77.0601 238.842C84.353 229.456 92.9682 220.944 103.065 214.56C108.002 211.439 113.262 208.876 118.826 207.064C121.426 206.218 124.256 205.481 126.978 205.178C128.447 205.014 129.917 204.921 131.393 204.857ZM157.808 185.621C159.58 183.729 163.1 185.687 162.249 188.193C160.248 194.089 157.062 199.466 152.089 203.34C147.415 206.982 141.841 209.347 135.838 208.842C135.792 208.838 135.752 208.827 135.716 208.81L136.234 209.508C140.295 214.973 144.579 220.362 149.743 224.828C160.265 233.929 174.59 238.838 188.423 235.346C199.307 232.599 208.895 224.038 211.715 213.128C211.311 213.308 210.83 213.37 210.303 213.256C208.047 212.769 205.813 210.408 204.358 208.716C202.784 206.885 201.554 204.908 200.653 202.673C199.004 198.584 198.475 193.318 200.727 189.356C201.005 188.868 201.646 189.141 201.7 189.618L201.786 190.362C202.22 194.075 202.761 197.667 204.521 201.052C205.382 202.708 206.415 204.324 207.671 205.711C208.344 206.453 209.073 207.163 209.86 207.785C210.627 208.391 211.555 208.829 212.243 209.525L212.368 209.659L212.372 209.635C212.546 208.165 213.582 207.517 214.596 207.558C215.577 207.597 216.73 208.027 217.176 208.232L217.218 208.252C224.064 211.521 230.368 215.781 236.301 220.508C248.571 230.283 257.763 243.062 262.218 258.11C264.404 265.495 265.658 273.105 266.982 280.68L267.798 285.321C269.034 292.314 270.414 299.444 273.204 305.949C273.926 307.632 273.37 309.21 271.6 309.871C269.39 310.698 267.172 311.498 264.951 312.288C266.042 316.942 266.707 321.758 267.524 326.436C269.261 336.379 271.39 346.258 273.215 356.187C274.148 361.265 274.99 366.359 275.922 371.436C276.371 373.881 276.839 376.323 277.295 378.767C277.54 380.085 277.763 381.407 277.997 382.727L278.038 382.946C278.172 383.642 278.34 384.362 278.148 385.059C277.928 385.854 277.305 386.415 276.748 386.985C276.29 387.454 275.628 387.457 275.066 387.201L274.882 387.116C273.879 386.649 273.094 386.184 272.738 385.059C272.513 384.347 272.432 383.544 272.284 382.81C272.002 381.403 271.735 379.995 271.482 378.582C270.976 375.756 270.483 372.927 270.001 370.097L269.551 367.446C268.006 358.311 266.539 349.12 265.797 339.889C265.468 335.793 265.119 331.701 264.767 327.609L264.503 324.539C264.169 320.653 263.761 316.67 263.703 312.732L262.375 313.201V313.201L255.893 315.48V315.48C254.286 316.045 252.24 317.203 250.511 316.992C249.664 316.889 249.019 316.624 248.52 316.142C249.117 324.52 249.925 332.884 251.002 341.205C251.981 348.776 253.067 356.337 254.35 363.864C254.985 367.591 255.638 371.314 256.347 375.028C256.702 376.885 257.068 378.74 257.445 380.592C257.632 381.517 257.856 382.442 258.003 383.374C258.17 384.441 257.875 385.098 257.275 385.975C256.783 386.697 255.799 387.067 255 386.569C253.943 385.909 253.392 385.338 253.081 384.136C252.798 383.045 252.627 381.905 252.408 380.8C252.004 378.759 251.614 376.716 251.237 374.671C250.45 370.393 249.724 366.104 249.075 361.802C246.79 346.649 245.34 331.369 244.608 316.064C244.247 308.513 244.135 300.955 244.199 293.396C244.232 289.521 244.359 285.635 244.635 281.771C244.914 277.858 245.494 274.024 246.013 270.15C246.031 270.013 246.224 270.005 246.232 270.15C246.478 274.494 246.862 278.833 247.051 283.188C247.231 287.344 247.31 291.507 247.453 295.664C247.641 301.129 247.901 306.597 248.246 312.061C248.871 311.382 249.813 310.99 250.755 311.143C252.119 310.858 253.589 310.146 254.89 309.713L259.795 308.083V308.083C262.374 307.226 264.953 306.376 267.54 305.55C265.227 297.808 263.642 289.95 262.288 281.977L261.685 278.392C260.49 271.334 259.202 264.274 257.038 257.439C254.763 250.254 251.359 243.574 246.842 237.524C242.39 231.562 236.974 226.312 231.398 221.402C226.623 217.199 221.516 213.403 216.646 209.315C216.697 209.586 216.708 209.885 216.663 210.212C215.628 217.75 211.675 224.769 206.166 229.99C195.099 240.479 178.717 242.655 164.552 237.736C150.85 232.979 138.736 221.711 134.456 207.769C134.382 207.53 134.704 207.435 134.833 207.611C135.07 207.934 135.309 208.258 135.547 208.581C135.531 208.453 135.599 208.313 135.758 208.252C140.752 206.334 145.656 203.613 149.399 199.765C151.223 197.89 152.816 195.765 154.073 193.473C154.675 192.375 155.216 191.238 155.647 190.063L155.757 189.759C156.28 188.288 156.717 186.787 157.808 185.621Z" fill="black"/>
<path fill-rule="evenodd" clip-rule="evenodd" d="M128.971 82.3441C130.491 80.7214 132.435 79.5125 134.561 79.1261C132.618 80.0916 130.719 81.0978 128.971 82.3441ZM125.993 96.3355C125.724 95.0989 125.544 93.8503 125.487 92.602C125.827 93.1158 126.369 93.459 126.979 93.6363C126.585 94.5131 126.25 95.4164 125.993 96.3355ZM227.717 115.724C225.962 108.459 217.775 94.4837 215.84 91.7939C213.739 85.1338 225.199 79.7927 218.967 74.5847C216.145 72.2348 212.416 71.4032 208.917 70.5698C184.696 64.7836 158.672 67.7018 136.207 78.342C132.79 77.6268 129.23 79.0246 126.745 81.4798C115.071 93.1514 130.981 114.21 134.46 127.368C140.428 142.04 128.133 144.508 129.452 156.922C130.476 163.335 137.006 165.03 142.517 165.999C143.4 166.205 144.581 166.235 144.866 167.164C145.759 172.585 148.82 177.751 152.929 181.257C152.57 182.316 152.844 183.602 154.111 184.532C165.593 193.019 180.07 197.266 194.39 196.503C211.456 195.593 220.281 185.863 222.411 183.358C234.185 167.54 232.778 146.67 230.377 127.82C228.703 114.688 230.825 128.595 227.717 115.724Z" fill="white"/>
<path fill-rule="evenodd" clip-rule="evenodd" d="M175.095 55.2677C175.632 53.5998 177.15 52.5967 178.888 52.8038C180.427 52.9846 182.075 54.5037 181.887 56.1803C181.852 56.504 181.805 56.8072 181.749 57.093L181.757 57.0955V57.0955L181.764 57.0959L181.726 57.2067C181.612 57.7403 181.453 58.2185 181.219 58.6705C180.92 59.5365 180.632 60.4054 180.348 61.2772C180.759 61.2597 181.178 61.2831 181.603 61.3618C182.042 60.2421 182.485 59.1253 182.925 58.0027C183.397 56.8043 183.728 55.2647 184.66 54.3375C185.853 53.1537 187.923 52.9087 189.377 53.7543C190.913 54.6466 191.461 56.2328 191.127 57.9328C190.957 58.7999 190.374 59.4033 189.654 59.7825L189.576 59.8222L189.022 61.1285C189.192 61.0556 189.368 60.9886 189.558 60.9332C189.857 60.8457 190.151 60.7903 190.438 60.767C191.229 59.3411 192.1 57.9561 193 56.5973C194.035 55.0344 196.057 54.3696 197.754 55.3581C199.273 56.2416 200.088 58.5626 199 60.0876C198.174 61.2452 197.391 62.4261 196.62 63.6187C196.752 63.642 196.884 63.6711 197.01 63.7091C197.068 63.6303 197.13 63.5516 197.195 63.4729C198.036 62.4348 199.015 61.6563 200.02 60.7932C200.961 59.9826 201.395 58.7084 202.632 58.0931C204.189 57.3204 206.065 57.6907 206.991 59.2303C208.979 62.5281 205.643 64.9366 203.509 66.934C205.364 65.7822 207.296 64.7296 209.277 63.8199C210.391 63.3096 211.523 62.8168 212.672 62.3911C214.375 61.7613 215.753 61.9628 217.151 63.1346C217.775 63.6595 218.086 64.8057 217.799 65.5694C217.242 67.0331 216.363 67.9225 214.821 68.3453C213.736 68.6427 212.625 68.8439 211.54 69.1559C209.723 69.6749 207.958 70.3076 206.246 71.0978C206.37 71.1736 206.487 71.2553 206.595 71.3486C207.873 70.9374 209.175 70.5817 210.482 70.2785C212.651 69.7727 214.857 69.431 217.074 69.2173L217.81 69.1491C220.468 68.8955 223.663 68.4273 225.294 70.9579C225.831 71.7918 225.889 73.1681 225.294 73.9933C224.157 75.5795 223.025 75.8944 221.144 75.9236C222.996 76.1189 224.846 76.3609 226.687 76.6438C227.956 76.8362 229.224 77.0544 230.488 77.2964L231.119 77.4194C232.658 77.7256 234.376 77.9034 235.698 78.7898C238.582 80.726 237.228 84.4962 234.033 84.8985C232.488 85.091 230.773 84.4408 229.257 84.1375C227.786 83.843 226.309 83.5835 224.825 83.3561C224.057 83.2365 223.289 83.1315 222.518 83.0353C224.087 83.2598 225.643 83.5777 227.159 84.0267L227.58 84.1531C230.509 85.0413 234.464 86.4559 235.378 89.5697C235.932 91.4621 234.417 93.1125 232.582 93.2233C230.876 93.3254 229.454 92.3136 228.006 91.5671C226.951 91.0247 225.878 90.6194 224.74 90.2725C223.565 89.9138 222.366 89.6164 221.158 89.3744C222.179 89.9337 223.173 90.5484 224.127 91.2361L224.566 91.5584C227.102 93.438 230.969 96.3481 230.075 99.8714C229.794 100.982 228.548 102.044 227.352 101.93C224.239 101.641 222.521 98.3435 220.173 96.5765C219.561 96.1158 218.889 95.661 218.186 95.2177C221.744 99.4399 224.576 104.321 226.731 109.363C231.466 120.454 232.918 130.725 232.953 142.651L232.954 143.02C232.96 149.598 232.81 156.296 232.165 162.845C231.567 168.895 230.471 174.867 227.713 180.346C223.09 189.534 214.082 196.689 204.148 199.413C193.094 202.445 180.738 200.075 171.683 193.077C169.373 191.292 172.436 187.417 174.796 189.064C184.22 195.64 196.409 197.722 207.226 193.272C215.806 189.744 222.715 182.154 225.643 173.415C227.507 167.856 228.05 161.928 228.715 156.134L228.759 155.748C229.463 149.689 229.87 143.589 229.864 137.489C229.855 126.161 228.22 116.836 223.21 106.56C220.853 101.72 217.796 97.2445 214.144 93.3166C213.035 93.5411 211.857 93.2262 210.737 93.1067C210.166 93.0454 209.594 92.9871 209.022 92.9346C209.606 93.3102 210.179 93.7007 210.742 94.1003L211.48 94.6299C213.791 96.2757 216.722 98.1504 216.128 101.332C215.967 102.192 215.105 102.983 214.27 103.178C211.241 103.895 209.16 100.968 207.114 99.23C205.335 97.7195 203.473 96.3666 201.577 95.0107C201.146 94.7046 200.712 94.3984 200.275 94.0951C200.686 94.571 201.085 95.0543 201.474 95.5421L202.05 96.2679C203.792 98.436 206.303 101.254 204.752 104.064C204.312 104.858 203.374 105.385 202.465 105.368C199.34 105.304 198.097 101.775 196.632 99.5478C195.371 97.6379 194.002 95.8388 192.586 94.0397C192.197 93.547 191.804 93.0542 191.405 92.5614C184.842 92.8996 178.302 93.7627 171.877 95.1419C167.462 96.0896 163.121 97.3174 158.812 98.6614L158.453 98.7747C156.121 99.5216 153.719 100.477 152.037 102.117C151.797 103.246 151.982 104.437 152.211 105.565L152.39 106.428C153.127 110.038 153.63 113.581 153.254 117.288C152.864 121.111 151.706 124.548 150.293 128.1C149.625 129.773 148.933 129.47 148.696 131.266C148.514 132.635 148.626 134.047 148.75 135.426L148.854 136.596C149.115 139.66 149.246 143 147.227 145.528C146.913 145.916 146.242 145.761 146.019 145.373C145.931 145.219 145.837 145.07 145.735 144.927C144.762 143.525 143.27 142.726 141.564 142.417C141.347 142.379 141.432 142.09 141.613 142.067C143.056 141.898 144.422 142.256 145.582 142.997C145.032 141.103 140.77 142.024 139.369 142.392L139.321 142.405C137.574 142.871 135.921 143.63 134.464 144.703C131.533 146.86 129.838 150.225 129.923 153.85C130.008 157.413 131.858 160.705 135.036 162.411C136.569 163.233 138.313 163.629 140.048 163.612C141.86 163.594 143.472 162.804 145.286 162.915C146.336 162.979 147.139 164.099 146.532 165.076C146.128 165.729 145.6 166.242 144.99 166.636C146.477 170.044 148.373 173.295 150.56 176.296C151.771 177.961 153.142 179.498 154.652 180.9C155.83 181.996 158.384 183.265 158.24 185.093C158.19 185.752 157.847 186.154 157.243 186.399C155.366 187.163 153.083 184.534 151.827 183.267L151.727 183.166C150.161 181.614 148.734 179.9 147.491 178.08C145.286 174.85 143.917 171.208 143.352 167.382C140.341 168.283 136.355 167.438 133.898 166.332C126.177 162.863 123.653 152.52 128.346 145.633C129.255 144.3 130.392 143.16 131.688 142.239C131.404 142.084 131.137 141.886 130.899 141.635C129.586 140.247 128.657 138.436 127.736 136.767L127.625 136.567C126.807 135.098 126.035 133.605 125.312 132.09L125.043 131.52C123.427 128.065 122.012 126.554 120.86 122.921C119.752 119.416 118.878 115.844 118.312 112.211L118.162 111.25C117.835 109.141 117.525 106.887 117.764 104.747C116.12 105.28 114.466 105.61 112.839 104.808C111.767 104.28 111.174 102.741 111.541 101.636C111.808 100.822 112.253 100.183 112.819 99.6819C112.482 99.5128 112.165 99.297 111.887 99.0579L111.643 98.8483V98.8483C110.659 97.9965 110.588 96.3783 111.186 95.3111C111.245 95.209 111.303 95.104 111.359 95.002C111.928 93.9902 113.103 93.3283 114.264 93.3458C114.452 93.3487 114.639 93.3487 114.83 93.3458C114.288 93.2262 113.757 93.0425 113.253 92.7334C110.978 91.3426 111.265 87.5724 114.018 86.9076C115.173 86.6306 116.448 86.7443 117.72 87.0417C117.673 87.0155 117.626 86.9892 117.579 86.9601C116.618 86.374 115.812 85.228 115.903 84.0529C116.002 82.7525 116.424 81.8252 117.579 81.1429C118.582 80.5539 120.001 80.4985 120.997 81.1429C121.862 81.7057 122.709 82.3268 123.524 82.9945C122.706 81.9944 121.997 80.9067 121.71 79.7521C121.355 78.3146 121.947 76.7487 123.249 75.9906C124.286 75.387 125.383 75.4541 126.362 75.9206C126.309 75.1654 126.494 74.3956 126.998 73.7133C128.03 72.314 129.906 71.509 131.538 72.5295C131.752 72.6636 132.04 72.894 132.318 73.1768C131.776 71.4594 132.265 69.6574 134.115 68.8818C135.244 68.4065 136.771 68.6456 137.75 69.4649C137.128 66.1205 142.091 63.6624 144.02 67.1177C144.458 67.9004 144.891 68.7246 145.278 69.5678L145.421 69.8848L145.436 69.879L145.337 69.6472V69.6472L145.237 69.4154C144.7 68.1761 144.017 66.8873 143.83 65.5431C143.554 63.5545 144.445 61.668 146.62 61.3764C147.743 61.2247 148.992 61.7321 149.745 62.6188C149.338 59.5336 152.802 57.2913 155.297 59.5948C156.478 60.6853 157.108 62.2803 157.859 63.6799C158.284 64.4701 158.718 65.2574 159.143 66.0505C159.251 65.9222 159.369 65.7939 159.492 65.6685C158.861 63.7907 158.372 61.8662 157.959 59.9301C157.566 58.1048 158.483 56.2095 160.377 55.6937C162.098 55.221 164.252 56.2768 164.636 58.0992C164.906 59.3819 165.225 60.6506 165.577 61.9129C165.817 61.8546 166.055 61.8138 166.289 61.7846C166.309 61.5474 166.331 61.309 166.356 61.0718L166.448 60.2284C166.653 58.3011 166.86 56.1011 167.872 54.4629C169.599 51.6637 174.025 52.8242 174.072 56.1337C174.099 57.8453 173.398 59.5423 173.155 61.2364C173.049 61.9741 172.988 62.7206 172.952 63.467C173.424 60.9886 174.072 58.5422 174.823 56.1337C174.91 55.845 175.004 55.5563 175.095 55.2677ZM136.906 150.844C140.79 150.246 144.34 152.401 146.641 155.418C147.06 155.97 146.784 156.748 146.406 157.212C146.134 157.553 145.767 157.594 145.354 157.646C144.879 157.707 144.278 157.325 144.07 156.914C142.59 153.975 139.948 152.118 136.906 150.975C136.85 150.954 136.832 150.855 136.906 150.844ZM142.29 98.1819L142.408 98.0563C143.193 97.2454 141.951 96.0068 141.164 96.8194C140.334 97.6749 139.783 98.7141 139.253 99.7673C138.748 100.772 140.265 101.659 140.772 100.651L141.003 100.192C141.365 99.48 141.752 98.7762 142.29 98.1819V98.1819ZM131.382 96.5176C132.496 96.331 132.024 94.6448 130.915 94.8308C129.478 95.0717 128.046 95.3455 126.609 95.5866C125.495 95.7732 125.968 97.4594 127.077 97.2737C128.514 97.0326 129.945 96.7588 131.382 96.5176ZM197.738 85.0056C196.662 84.6484 196.201 86.3375 197.271 86.6927C198.75 87.1834 200.216 87.6864 201.619 88.3678C202.633 88.86 203.525 87.3516 202.507 86.8571C200.967 86.1092 199.362 85.5444 197.738 85.0056ZM131.129 82.7382C130.078 82.3201 129.622 84.0115 130.661 84.4253L134.46 85.9366V85.9366C135.511 86.3547 135.968 84.6635 134.928 84.2498L131.129 82.7382V82.7382ZM211.004 78.6305L210.865 78.5434C209.912 77.9294 209.03 79.4433 209.977 80.0541C210.533 80.4126 211.21 80.6557 211.719 81.0826L211.825 81.177C212.648 81.9497 213.894 80.7152 213.069 79.9398C212.466 79.3732 211.702 79.0576 211.004 78.6305V78.6305Z" fill="black"/>
<path fill-rule="evenodd" clip-rule="evenodd" d="M181.825 169.496C185.415 165.346 191.461 165.057 196.469 166.095C199.683 166.761 202.812 167.87 206.077 168.281C207.601 168.473 209.142 168.531 210.678 168.502C212.186 168.475 213.697 168.172 215.2 168.229C215.431 168.237 215.519 168.539 215.318 168.662C213.256 169.922 210.478 170.326 208.042 170.572C208.05 170.751 208.061 170.926 208.086 171.075C208.152 171.47 208.213 171.864 208.262 172.262C208.372 173.16 208.496 174.056 208.619 174.952C208.863 176.717 208.939 178.537 209.367 180.271L209.442 180.559C209.541 180.924 209.563 181.253 209.53 181.549L209.629 181.504L209.942 181.353L210.147 181.257C210.896 180.912 211.61 180.66 212.491 180.744C213.161 180.808 213.723 181.262 213.727 181.974C213.744 185.169 209.416 186.196 206.941 186.807L206.215 186.985C203.064 187.75 199.846 188.42 196.606 188.58C191.405 188.837 185.561 187.41 182.159 183.214C178.984 179.299 178.402 173.452 181.825 169.496ZM205.443 182.917C204.898 178.107 198.956 177.843 197.247 180.893C196.489 176.642 185.269 180.525 186.146 181.37C189.471 184.574 194.518 184.862 198.856 184.27C201.065 183.968 203.276 183.476 205.443 182.917ZM198.85 170.312L197.356 170.098L196.768 170.017C193.065 169.524 188.9 169.269 185.856 171.631C184.744 172.492 184.118 173.617 183.885 174.825C186.766 174.4 189.657 174.076 192.557 173.806L193.348 173.734C195.163 173.571 196.976 173.4 198.789 173.22L200.077 173.09L201.365 172.957C201.818 172.91 204.872 172.754 205.447 172.859C205.508 172.345 205.588 171.235 205.717 170.735C203.548 170.809 201.387 170.648 199.23 170.363L198.85 170.312ZM205.726 148.816C207.939 150.154 211.312 153.275 208.931 156.593C206.128 159.518 202.092 156.164 200.103 154.647C198.259 153.471 196.187 156.495 197.898 157.868C212.269 168.451 218.101 149.166 206.845 147.242C205.606 147.03 205.146 148.402 205.726 148.816ZM209.687 154.454L209.793 154.396L209.829 154.375C209.891 154.335 209.852 154.339 209.71 154.388L209.604 154.426V154.5C209.631 154.484 209.66 154.471 209.687 154.454ZM181.338 142.563L181.337 142.497C181.341 140.638 182.43 136.393 185.121 136.393C186.802 136.393 187.823 139.282 188 142.26L188.006 142.382C188.084 144.233 187.573 148.281 185.121 148.281C182.643 148.281 181.363 144.447 181.338 142.563V142.563ZM220.956 141.98L220.957 141.914C220.953 140.055 219.864 135.809 217.173 135.809C215.534 135.809 214.522 138.556 214.309 141.454L214.294 141.677C214.188 143.466 214.666 147.698 217.173 147.698C219.651 147.698 220.931 143.864 220.956 141.98V141.98ZM182.873 123.715C185.069 123.383 187.977 124.014 189.001 126.235C189.457 127.225 188.917 128.319 187.767 128.374C184.988 128.507 182.495 127.891 180.056 129.689C179.006 130.463 178.124 131.534 177.383 132.603L177.103 133.009L176.87 133.344C176.368 134.08 175.891 134.879 175.966 135.766C175.988 136.029 175.718 136.278 175.461 136.268C173.862 136.203 173.69 134.209 173.9 133.011C174.292 130.789 175.373 128.703 176.872 127.022C178.446 125.257 180.524 124.071 182.873 123.715ZM213.121 126.413C214.636 125.444 216.573 125.072 218.347 125.215C221.845 125.495 227.713 128.453 226.94 132.703C226.702 134.013 224.869 134.705 223.79 133.978C222.628 133.196 222.346 131.981 221.482 130.959C220.792 130.143 219.918 129.553 218.983 129.05C218.061 128.554 216.994 128.253 215.947 128.143L215.773 128.127C215.143 128.073 211.962 128.088 212.429 129.269C212.52 129.5 212.174 129.683 212.015 129.508C211.04 128.435 212.145 127.037 213.121 126.413Z" fill="black"/>
</svg>
