<svg width="240" height="324" viewBox="0 0 240 324" fill="none" xmlns="http://www.w3.org/2000/svg">
<path fill-rule="evenodd" clip-rule="evenodd" d="M198.116 286.313C202.199 286.116 200.557 278.971 200.264 276.347C197.031 266.764 197.791 256.308 196.52 246.263C195.727 236.886 194.71 227.538 193.854 218.168C192.173 199.147 180.099 160.427 166.321 154.2C164.586 146.582 157.417 139.47 148.348 139.47C142.162 132.145 134.716 126.99 125.166 128.031C121.22 128.21 117.392 132.398 113.611 133.206C111.493 133.498 92.7033 132.746 88.9393 134.983C86.3175 136.329 83.9507 138.818 84.7216 141.986C85.9516 145.825 82.1291 141.672 74.1552 145.769C57.8954 155.538 67.6116 168.607 68.0422 169.012C57.8954 183.135 49.0267 194.593 44.9232 211.855C42.2638 224.671 42.5631 237.902 40.3349 250.783C39.5481 255.25 38.3412 259.564 37.0351 263.902C35.6196 269.578 34.9313 283.727 34.1511 283.853C32.7299 284.206 34.9725 287.126 36.4784 287.128C78.23 294.056 120.639 287.415 162.615 286.33C174.445 285.918 186.287 285.823 198.116 286.313Z" fill="white"/>
<path fill-rule="evenodd" clip-rule="evenodd" d="M134.835 170.259C134.855 170.067 135.112 170.068 135.132 170.259L135.427 173.105C135.786 176.582 136.131 180.052 136.381 183.545C136.693 187.901 136.902 192.255 137.003 196.621C137.353 211.825 137.423 227.037 137.453 242.244C139.508 242.102 141.564 241.965 143.622 241.832C145.017 241.742 146.413 241.655 147.809 241.57L151.368 241.354V241.354L152.833 241.264C153.824 241.203 154.949 240.954 155.641 241.831C155.918 242.182 156.057 242.639 155.799 243.056C155.203 244.018 154.287 243.984 153.252 244.026C152.275 244.065 151.298 244.104 150.321 244.142C148.228 244.223 146.135 244.3 144.041 244.359C141.843 244.42 139.646 244.47 137.45 244.508C137.427 250.928 137.162 257.34 136.875 263.753L136.745 266.639C136.393 274.443 136.016 282.254 135.479 290.048C135.435 290.686 134.532 290.685 134.488 290.048C133.884 281.271 133.485 272.475 133.089 263.686C132.803 257.314 132.636 250.94 132.556 244.565C132.266 244.566 131.975 244.57 131.685 244.572C123.44 244.607 115.197 244.643 106.952 244.566C106.966 244.582 106.979 244.599 106.988 244.62C107.585 246.029 107.642 247.827 107.627 249.34C107.61 251.074 107.377 252.787 106.978 254.474C105.547 260.516 101.857 265.928 97.6545 270.402L97.5173 270.547C96.526 271.595 95.3888 272.648 94.7801 273.983C94.1584 275.345 93.9426 276.939 93.6358 278.404L93.6 278.572L92.4004 284.115C92.0193 285.876 91.9111 288.443 90.518 289.713C89.2183 290.899 87.4964 290.28 86.8848 288.754C86.4071 287.563 86.8829 286.255 87.1658 285.064L89.3822 275.744C89.7464 274.224 90.1444 272.694 90.9304 271.328C91.7355 269.93 92.9159 268.916 94.1203 267.879C96.4009 265.915 98.4946 263.666 100.265 261.231C102.035 258.797 103.548 256.114 104.609 253.293C105.14 251.881 105.575 250.414 105.875 248.935C106.161 247.531 106.158 246.077 106.463 244.689C106.484 244.593 106.565 244.527 106.658 244.498C106.636 244.436 106.67 244.352 106.756 244.347L113.499 243.913C119.493 243.527 125.487 243.13 131.476 242.677L132.534 242.6V242.6C132.452 234.094 132.522 225.587 132.675 217.078C132.816 209.275 132.819 201.47 133.051 193.668C133.166 189.796 133.415 185.933 133.692 182.069C133.975 178.117 134.428 174.199 134.835 170.259ZM71.5199 215.501C71.4481 215.068 71.993 214.8 72.2442 215.196C75.1155 219.724 76.4999 224.641 77.0835 229.94C77.599 234.616 77.4471 239.359 77.1904 244.048C76.9166 249.048 76.5971 254.048 76.2741 259.045L75.7778 266.71V266.71L74.5324 285.923C74.4433 287.298 74.1314 288.547 72.9485 289.186C72.7987 289.311 72.6426 289.424 72.4607 289.521C71.8216 289.863 70.974 289.69 70.6045 289.034L70.7527 289.131C70.8817 289.213 70.7368 289.099 70.3178 288.791L69.9623 288.331V288.331C69.7039 287.943 69.5389 287.561 69.4725 287.099C69.3694 286.381 69.503 285.594 69.5499 284.873L70.3662 272.274V272.274C71.0011 262.479 71.7424 252.688 72.3012 242.888C72.5615 238.321 72.7438 233.749 72.6204 229.174C72.4975 224.624 72.2657 219.997 71.5199 215.501ZM96.3595 131.161L96.5188 131.134C102.222 130.186 108.424 130.364 113.636 133.114C113.679 133.137 113.659 133.208 113.611 133.206L111.933 133.139C106.622 132.931 101.328 132.808 96.1054 134.056L95.5708 134.185C93.6901 134.644 91.7262 135.206 90.2156 136.448C88.7718 137.636 88.0529 139.468 87.3616 141.155L87.2692 141.378C86.5678 143.044 85.6801 144.624 84.1428 145.665C82.1516 147.014 79.7568 146.849 77.4737 147.032C73.4537 147.356 70.167 150.27 68.5318 153.837C67.5416 155.996 67.1192 158.417 67.0356 160.779C66.9927 161.981 66.9866 163.231 67.1467 164.425C67.1978 164.807 67.6698 166.198 67.9104 166.165C68.4452 166.091 68.934 166.37 69.1007 166.797C70.4216 165.521 71.7804 164.281 73.183 163.086C76.6793 160.107 80.4452 157.408 84.4111 155.088C87.4379 153.317 90.6306 151.563 93.9367 150.237C93.6747 150.231 93.4164 150.283 93.1664 150.413C93.057 150.47 92.9482 150.333 93.0346 150.242C94.0759 149.146 95.3233 148.99 96.5807 149.282C96.849 149.197 97.1175 149.114 97.3871 149.036C97.5213 148.997 97.588 149.182 97.4786 149.253L97.1697 149.451V149.451C98.5415 149.91 99.8883 150.814 100.955 151.527C104.018 153.575 106.714 156.078 109.446 158.535L109.943 158.98C112.349 161.129 114.816 163.217 117.549 164.941C118.98 165.843 120.482 166.678 122.059 167.298C123.411 167.831 125.612 168.167 126.245 169.596C126.808 170.28 126.573 171.153 125.914 171.613C124.802 172.837 122.578 172.046 121.253 171.537C119.656 170.922 118.109 170.183 116.634 169.317C113.769 167.635 111.128 165.543 108.668 163.318C106.098 160.994 103.674 158.525 101.175 156.128C100.092 155.089 99.0339 154.027 97.9494 152.99L97.4047 152.473C96.8511 151.954 96.0625 151.145 95.2193 150.655C93.6308 151.603 92.0178 152.511 90.4436 153.484C88.2462 154.841 86.1135 156.296 84.0137 157.799C79.9713 160.693 76.1406 163.934 72.5843 167.408C66.0621 173.778 60.5053 181.053 55.651 188.756L55.2824 189.343C52.5239 193.752 49.9153 198.303 48.0656 203.174C46.0305 208.535 45.0407 214.173 44.503 219.863C43.9694 225.513 43.7894 231.191 43.193 236.836C42.5813 242.625 41.3763 248.286 40.0056 253.937L39.6787 255.277C38.4384 260.337 37.1583 265.398 36.5207 270.578C36.1804 273.345 35.9756 276.15 36.0219 278.939C36.0684 281.745 36.5091 284.488 36.8647 287.265C37.0009 288.328 35.9547 289.216 35.0186 289.357C33.942 289.518 33.0171 288.831 32.6824 287.831C31.6392 284.712 31.4497 281.264 31.4824 277.99C31.5154 274.667 31.9394 271.365 32.536 268.099C33.7094 261.674 35.5201 255.383 37.0349 249.035C38.3699 243.44 39.2659 237.836 39.7489 232.104C40.2502 226.157 40.5504 220.191 41.465 214.287C42.3678 208.459 44.0663 202.892 46.628 197.578C48.9604 192.739 51.8678 188.185 54.916 183.77C58.6176 178.41 62.683 173.309 67.2274 168.661C66.8192 168.644 66.4001 168.512 66.0152 168.272C64.8375 167.537 64.2891 166.099 64.1205 164.787C63.7259 161.717 63.8211 158.511 64.6104 155.509C65.8837 150.667 69.1884 146.364 73.9778 144.619C75.2106 144.169 76.5211 144.005 77.8275 143.973C79.0673 143.942 80.4213 144.104 81.6175 143.711C83.5215 143.085 84.3376 140.841 85.0525 139.141L85.0854 139.063C86.0021 136.896 87.1024 135.038 89.0879 133.685C91.2062 132.242 93.8603 131.585 96.3595 131.161V131.161ZM150.549 139.731C152.263 139.136 154.406 139.676 156.082 140.195C157.949 140.774 159.674 141.841 161.154 143.108C162.714 144.443 164.004 146.093 164.915 147.935L165.002 148.113C165.835 149.822 166.782 152.168 166.363 154.046C166.351 154.099 166.337 154.151 166.321 154.2C169.722 155.875 172.862 157.972 175.597 160.631C178.781 163.726 181.477 167.248 183.759 171.053C192.821 186.166 194.416 204.317 195.486 221.552L195.753 225.922C196.334 235.359 197.014 244.773 198.781 254.08L198.91 254.751C200.798 264.495 203.502 274.313 203.228 284.309C203.145 287.304 198.721 287.283 198.593 284.309C198.11 273.113 195.498 262.303 193.73 251.283C190.618 231.893 192.177 211.904 187.768 192.708C186.038 185.175 183.357 177.868 179.53 171.144C177.639 167.822 175.476 164.613 172.942 161.747C170.762 159.281 168.496 156.908 165.948 154.835C165.134 155.651 163.508 155.235 163.083 154.046C162.791 153.229 162.876 152.273 162.688 151.417C162.514 150.622 162.275 149.835 161.955 149.087C161.319 147.596 160.384 146.164 159.305 144.957C158.139 143.652 156.8 142.569 155.301 141.674C153.791 140.773 152.141 140.504 150.549 139.845C150.495 139.823 150.49 139.751 150.549 139.731ZM157.208 243.355C157.21 243.276 157.303 243.239 157.36 243.292C157.961 243.845 158.324 244.638 158.766 245.319C159.276 246.103 159.812 246.872 160.373 247.62C161.498 249.12 162.751 250.534 164.013 251.919C165.188 253.207 166.439 254.44 167.738 255.603C169.144 256.863 170.72 257.988 171.998 259.383C174.665 262.294 175.096 266.291 175.658 270.043L175.72 270.449C176.063 272.675 176.371 274.908 176.648 277.144C176.783 278.232 176.917 279.32 177.027 280.411L177.06 280.756C177.158 281.823 177.185 282.906 176.572 283.839C175.916 284.837 174.425 285.187 173.538 284.23C172.014 282.586 172.3 279.667 172.102 277.552C171.938 275.804 171.752 274.057 171.545 272.313L171.439 271.442C171.194 269.458 170.995 267.435 170.541 265.485C170.141 263.769 169.379 262.473 168.129 261.23C166.869 259.977 165.56 258.808 164.398 257.459C163.165 256.028 162.052 254.494 161.05 252.892C160.193 251.523 159.506 250.032 158.876 248.544L158.772 248.296C158.163 246.844 157.16 244.954 157.208 243.355ZM179.203 180.997C179.216 180.795 179.516 180.791 179.52 180.997C179.558 182.739 179.594 184.48 179.63 186.222C179.921 200.256 179.742 214.323 181.149 228.309C181.813 234.903 183.035 241.401 184.45 247.871C185.174 251.182 185.933 254.485 186.654 257.796C187.358 261.023 188.112 264.266 188.669 267.523C189.217 270.724 189.708 273.95 189.929 277.192L189.956 277.615C190.051 279.186 190.503 281.496 189.639 282.888C188.702 284.396 186.909 284.423 185.905 282.984C184.962 281.632 185.197 279.228 185.03 277.615C184.861 275.973 184.682 274.328 184.479 272.689C184.082 269.492 183.56 266.302 183.016 263.127C181.885 256.514 180.243 249.985 179.032 243.383C177.79 236.618 176.907 229.804 176.87 222.916C176.833 215.97 177.568 209.037 177.939 202.106C178.316 195.066 178.744 188.032 179.203 180.997ZM112.933 137.346C113.309 136.077 114.639 135.284 115.935 135.64C117.124 135.967 118.105 137.41 117.64 138.645C117.133 139.992 116.247 141.14 115.5 142.365C114.81 143.496 113.804 144.387 113.101 145.498L113.875 146.334C114.263 146.75 114.651 147.165 115.044 147.572L116.395 148.972C117.448 150.059 118.506 151.142 119.595 152.192C122.796 155.281 126.048 158.268 129.633 160.913C130.449 161.515 131.271 162.114 132.117 162.674L132.432 162.883C133.012 163.263 133.659 163.637 134.36 163.572C136.063 163.416 137.601 161.607 138.771 160.481L138.833 160.423C141.732 157.662 144.417 154.645 146.765 151.4C147.286 150.679 147.791 149.946 148.282 149.204C147.147 147.878 147.418 145.289 147.356 143.681C147.312 142.55 147.308 141.419 147.302 140.287L147.299 140.059C147.285 139.326 147.252 138.624 147.727 138.021C147.755 137.986 147.812 137.987 147.848 138.005C148.498 138.347 148.699 138.918 148.977 139.559L149.006 139.625C149.344 140.394 149.667 141.171 149.995 141.944C150.338 142.754 150.652 143.576 150.971 144.395C151.119 144.777 151.261 145.159 151.399 145.544C151.483 145.79 151.57 146.035 151.66 146.279L151.681 146.298C151.799 146.398 151.9 146.504 151.986 146.614C152.349 146.795 152.638 147.126 152.773 147.613C153.068 148.672 152.458 149.536 151.914 150.376C149.704 153.792 147.185 157.046 144.385 159.999C142.994 161.465 141.531 162.866 140.008 164.195L139.742 164.426C138.373 165.602 136.888 166.716 135.06 166.992C132.922 167.313 131.181 166.249 129.544 165.024L129.381 164.901C127.829 163.726 126.308 162.509 124.835 161.236C121.831 158.642 118.973 155.856 116.436 152.8C113.969 149.827 111.531 146.503 110.01 142.926C109.917 142.708 110.161 142.48 110.352 142.662C111.095 143.369 111.809 144.115 112.516 144.87C112.535 143.758 112.33 142.637 112.444 141.518C112.584 140.158 112.543 138.656 112.933 137.346Z" fill="black"/>
<path fill-rule="evenodd" clip-rule="evenodd" d="M92.952 59.6854C94.0477 58.5092 95.449 57.633 96.9809 57.353C95.5806 58.0527 94.2118 58.7821 92.952 59.6854ZM90.806 69.8268C90.6123 68.9305 90.4821 68.0255 90.4411 67.1207C90.686 67.4931 91.077 67.7419 91.5163 67.8704C91.2325 68.5059 90.9913 69.1607 90.806 69.8268ZM164.12 83.8802C162.855 78.614 156.955 68.4846 155.561 66.535C154.046 61.7075 162.305 57.8361 157.814 54.0612C155.78 52.3579 153.092 51.7551 150.571 51.1511C133.114 46.9571 114.358 49.0722 98.1674 56.7846C95.7046 56.2662 93.1388 57.2794 91.3479 59.059C82.9342 67.5189 94.4005 82.783 96.9078 92.3204C101.21 102.955 92.3482 104.744 93.2985 113.742C94.0369 118.39 98.7433 119.619 102.715 120.321C103.351 120.47 104.202 120.493 104.408 121.166C105.051 125.095 107.257 128.839 110.219 131.381C109.96 132.148 110.158 133.08 111.071 133.754C119.346 139.906 129.78 142.985 140.101 142.431C152.4 141.772 158.761 134.719 160.296 132.903C168.782 121.438 167.768 106.311 166.037 92.6476C164.831 83.1293 166.36 93.2093 164.12 83.8802Z" fill="white"/>
<path fill-rule="evenodd" clip-rule="evenodd" d="M126.195 40.0596C126.581 38.8506 127.676 38.1236 128.929 38.2737C130.038 38.4047 131.225 39.5058 131.09 40.7211C131.064 40.9557 131.031 41.1755 130.99 41.3826L130.996 41.3845V41.3845L131.001 41.3847L130.974 41.465C130.891 41.8518 130.777 42.1984 130.608 42.526C130.393 43.1537 130.186 43.7836 129.981 44.4155C130.276 44.4028 130.579 44.4197 130.885 44.4768C131.202 43.6652 131.521 42.8557 131.838 42.042C132.178 41.1734 132.417 40.0575 133.088 39.3854C133.948 38.5273 135.44 38.3497 136.488 38.9627C137.595 39.6094 137.99 40.7591 137.749 41.9913C137.627 42.6198 137.207 43.0572 136.687 43.332L136.631 43.3609L136.232 44.3077C136.355 44.2549 136.481 44.2063 136.619 44.1661C136.834 44.1027 137.045 44.0625 137.252 44.0456C137.823 43.0121 138.45 42.0082 139.099 41.0233C139.845 39.8905 141.302 39.4086 142.526 40.1251C143.62 40.7655 144.207 42.4478 143.424 43.5532C142.828 44.3923 142.264 45.2482 141.708 46.1126C141.803 46.1295 141.898 46.1507 141.989 46.1782C142.031 46.1211 142.076 46.064 142.122 46.007C142.729 45.2546 143.434 44.6903 144.159 44.0647C144.837 43.4771 145.15 42.5535 146.041 42.1076C147.163 41.5475 148.515 41.8159 149.183 42.9318C150.615 45.3222 148.211 47.0679 146.673 48.5157C148.01 47.6809 149.402 46.9179 150.831 46.2585C151.633 45.8886 152.449 45.5314 153.277 45.2229C154.505 44.7663 155.498 44.9124 156.505 45.7618C156.955 46.1422 157.179 46.973 156.972 47.5266C156.571 48.5876 155.937 49.2322 154.826 49.5386C154.044 49.7542 153.243 49.9 152.462 50.1262C151.152 50.5024 149.88 50.961 148.646 51.5338C148.735 51.5887 148.819 51.6479 148.898 51.7155C149.819 51.4175 150.757 51.1597 151.699 50.9399C153.262 50.5733 154.852 50.3256 156.45 50.1707L156.98 50.1213C158.896 49.9374 161.199 49.5981 162.374 51.4323C162.761 52.0368 162.803 53.0344 162.374 53.6325C161.555 54.7822 160.739 55.0105 159.383 55.0316C160.718 55.1732 162.051 55.3486 163.378 55.5537C164.292 55.6932 165.207 55.8513 166.117 56.0267L166.572 56.1158C167.681 56.3378 168.919 56.4667 169.872 57.1092C171.951 58.5126 170.975 61.2453 168.672 61.537C167.559 61.6765 166.323 61.2052 165.231 60.9854C164.17 60.7719 163.105 60.5838 162.036 60.4189C161.483 60.3323 160.929 60.2562 160.374 60.1865C161.504 60.3492 162.626 60.5796 163.718 60.905L164.021 60.9966C166.133 61.6404 168.983 62.6658 169.642 64.9228C170.041 66.2945 168.949 67.4907 167.626 67.571C166.397 67.645 165.372 66.9116 164.329 66.3706C163.568 65.9775 162.795 65.6837 161.975 65.4322C161.128 65.1722 160.264 64.9566 159.393 64.7812C160.129 65.1866 160.845 65.6322 161.533 66.1307L161.849 66.3643C163.677 67.7267 166.464 69.836 165.82 72.3898C165.617 73.1951 164.719 73.9644 163.857 73.882C161.614 73.6727 160.376 71.2823 158.683 70.0016C158.242 69.6676 157.758 69.3379 157.251 69.0167C159.816 72.077 161.857 75.615 163.409 79.2693C166.822 87.3086 167.869 94.7536 167.894 103.398L167.895 103.665C167.899 108.433 167.791 113.288 167.326 118.035C166.895 122.421 166.105 126.749 164.117 130.721C160.786 137.38 154.293 142.567 147.133 144.541C139.167 146.739 130.262 145.02 123.736 139.948C122.071 138.654 124.279 135.846 125.979 137.04C132.771 141.806 141.556 143.315 149.352 140.09C155.536 137.532 160.515 132.031 162.626 125.697C163.969 121.667 164.36 117.37 164.839 113.171L164.871 112.891C165.379 108.499 165.672 104.078 165.668 99.6561C165.662 91.4452 164.483 84.6862 160.872 77.2382C159.174 73.7298 156.97 70.4858 154.338 67.6387C153.539 67.8014 152.69 67.5731 151.883 67.4865C151.471 67.4421 151.059 67.3998 150.647 67.3618C151.068 67.634 151.48 67.9171 151.886 68.2067L152.418 68.5906C154.083 69.7835 156.196 71.1423 155.768 73.4487C155.652 74.0722 155.031 74.6449 154.429 74.7865C152.246 75.3065 150.746 73.1845 149.271 71.9248C147.989 70.8301 146.648 69.8494 145.281 68.8666C144.97 68.6447 144.657 68.4228 144.343 68.203C144.638 68.5479 144.926 68.8982 145.207 69.2518L145.622 69.7779C146.877 71.3493 148.687 73.3919 147.569 75.429C147.252 76.0039 146.576 76.3865 145.921 76.3738C143.669 76.3273 142.773 73.7699 141.717 72.1552C140.808 70.7709 139.821 69.4668 138.801 68.1628C138.52 67.8056 138.237 67.4485 137.95 67.0913C133.219 67.3364 128.506 67.962 123.875 68.9617C120.693 69.6486 117.564 70.5386 114.459 71.5127L114.201 71.5949C112.52 72.1362 110.788 72.8291 109.576 74.0172C109.403 74.8358 109.536 75.6991 109.702 76.5167L109.831 77.1424C110.362 79.7591 110.724 82.3273 110.453 85.0138C110.172 87.7846 109.338 90.2764 108.319 92.8506C107.838 94.0638 107.339 93.844 107.168 95.1459C107.037 96.1376 107.118 97.1613 107.207 98.1613L107.282 99.009C107.47 101.23 107.564 103.651 106.109 105.483C105.883 105.764 105.4 105.652 105.239 105.371C105.176 105.259 105.108 105.151 105.034 105.048C104.333 104.031 103.257 103.452 102.028 103.228C101.871 103.2 101.933 102.991 102.064 102.974C103.103 102.852 104.088 103.112 104.924 103.649C104.528 102.276 101.456 102.944 100.446 103.21L100.412 103.219C99.1525 103.558 97.9609 104.107 96.9109 104.885C94.7982 106.449 93.5771 108.888 93.6384 111.515C93.6996 114.098 95.0327 116.484 97.3229 117.72C98.4278 118.316 99.6849 118.604 100.936 118.591C102.241 118.578 103.403 118.006 104.711 118.086C105.467 118.132 106.046 118.944 105.609 119.652C105.317 120.125 104.937 120.497 104.498 120.783C105.569 123.253 106.936 125.61 108.512 127.785C109.384 128.992 110.373 130.105 111.461 131.122C112.31 131.917 114.15 132.836 114.047 134.161C114.011 134.639 113.764 134.93 113.329 135.108C111.975 135.661 110.33 133.756 109.425 132.837L109.352 132.764C108.224 131.64 107.195 130.397 106.3 129.078C104.711 126.736 103.724 124.097 103.317 121.324C101.147 121.977 98.2736 121.364 96.5032 120.563C90.9384 118.048 89.1194 110.551 92.5018 105.559C93.1567 104.593 93.9764 103.767 94.9102 103.099C94.7053 102.987 94.513 102.843 94.3419 102.662C93.3953 101.656 92.726 100.343 92.0617 99.1329L91.982 98.9883C91.3924 97.923 90.8361 96.8411 90.3147 95.7425L90.1208 95.3298C88.9567 92.8253 87.9363 91.7305 87.106 89.0971C86.3074 86.5566 85.6778 83.9676 85.2701 81.3342L85.1617 80.6371C84.9259 79.1091 84.7029 77.4751 84.875 75.9236C83.6898 76.3104 82.4982 76.5492 81.3257 75.968C80.5525 75.5854 80.1257 74.4695 80.3898 73.6685C80.582 73.0788 80.9032 72.616 81.3109 72.2524C81.068 72.1299 80.8398 71.9735 80.6391 71.8002L80.4637 71.6482V71.6482C79.7539 71.0308 79.7032 69.8578 80.1341 69.0843C80.1764 69.0103 80.2187 68.9342 80.2588 68.8603C80.6687 68.1269 81.5158 67.6471 82.3525 67.6598C82.4877 67.6619 82.6229 67.6619 82.7602 67.6598C82.3694 67.5731 81.987 67.44 81.6236 67.216C79.9841 66.2078 80.1912 63.4751 82.175 62.9932C83.0074 62.7924 83.9264 62.8748 84.8433 63.0904C84.8095 63.0714 84.7757 63.0524 84.7419 63.0312C84.0489 62.6064 83.468 61.7758 83.5334 60.9241C83.6053 59.9814 83.9095 59.3094 84.7419 58.8148C85.4644 58.3879 86.487 58.3477 87.2053 58.8148C87.8285 59.2227 88.4391 59.6729 89.0264 60.1569C88.437 59.4319 87.9257 58.6436 87.7187 57.8067C87.463 56.7647 87.8898 55.6297 88.8278 55.0802C89.5757 54.6427 90.3658 54.6913 91.0715 55.0295C91.0334 54.4821 91.1665 53.9241 91.5299 53.4296C92.2736 52.4153 93.6257 51.8318 94.8025 52.5715C94.9567 52.6687 95.1637 52.8357 95.3644 53.0407C94.9736 51.7959 95.3264 50.4897 96.6595 49.9275C97.4729 49.583 98.5736 49.7563 99.2792 50.3502C98.8313 47.926 102.408 46.1443 103.798 48.6488C104.114 49.2162 104.426 49.8136 104.705 50.4248L104.808 50.6546L104.819 50.6503L104.748 50.4823V50.4823L104.675 50.3143C104.288 49.416 103.796 48.4819 103.661 47.5076C103.462 46.0661 104.105 44.6987 105.672 44.4874C106.481 44.3775 107.381 44.7452 107.924 45.3879C107.631 43.1516 110.128 41.5263 111.926 43.196C112.777 43.9865 113.231 45.1425 113.772 46.157C114.079 46.7298 114.391 47.3004 114.698 47.8753C114.776 47.7823 114.86 47.6893 114.949 47.5984C114.495 46.2373 114.142 44.8424 113.844 43.4391C113.561 42.116 114.222 40.7422 115.587 40.3684C116.827 40.0258 118.38 40.7911 118.657 42.112C118.851 43.0417 119.081 43.9613 119.335 44.8762C119.508 44.834 119.679 44.8044 119.848 44.7832C119.862 44.6113 119.878 44.4385 119.896 44.2666L119.963 43.6552C120.11 42.2583 120.259 40.6637 120.989 39.4762C122.233 37.4473 125.424 38.2885 125.457 40.6873C125.476 41.9279 124.971 43.158 124.796 44.3859C124.72 44.9206 124.676 45.4617 124.65 46.0027C124.99 44.2063 125.457 42.433 125.998 40.6873C126.062 40.478 126.129 40.2688 126.195 40.0596ZM98.6707 109.336C101.47 108.903 104.028 110.465 105.687 112.652C105.989 113.052 105.79 113.616 105.518 113.952C105.321 114.199 105.057 114.229 104.759 114.267C104.417 114.311 103.984 114.034 103.834 113.736C102.767 111.606 100.864 110.26 98.6707 109.431C98.6306 109.416 98.6179 109.344 98.6707 109.336ZM102.551 71.1652L102.636 71.0742C103.202 70.4864 102.307 69.5886 101.74 70.1776C101.142 70.7977 100.745 71.551 100.363 72.3144C99.9988 73.0423 101.092 73.6852 101.457 72.9545L101.624 72.6225C101.885 72.1061 102.164 71.596 102.551 71.1652V71.1652ZM94.6899 69.9589C95.4927 69.8236 95.1523 68.6014 94.3529 68.7362C93.3172 68.9108 92.2856 69.1092 91.2498 69.284C90.4472 69.4193 90.7875 70.6415 91.587 70.5069C92.6226 70.3321 93.6542 70.1337 94.6899 69.9589ZM142.514 61.6146C141.739 61.3556 141.406 62.58 142.177 62.8374C143.243 63.1931 144.3 63.5577 145.311 64.0516C146.042 64.4084 146.685 63.3151 145.951 62.9566C144.841 62.4145 143.684 62.0051 142.514 61.6146ZM94.5073 59.9711C93.7499 59.668 93.421 60.8941 94.1703 61.194L96.9084 62.2894V62.2894C97.6658 62.5925 97.9947 61.3666 97.2453 61.0667L94.5073 59.9711V59.9711ZM152.075 56.9937L151.975 56.9306C151.288 56.4855 150.652 57.5828 151.335 58.0256C151.736 58.2854 152.223 58.4616 152.59 58.7711L152.667 58.8395C153.26 59.3996 154.158 58.5047 153.563 57.9428C153.128 57.532 152.578 57.3033 152.075 56.9937V56.9937Z" fill="black"/>
<path fill-rule="evenodd" clip-rule="evenodd" d="M131.045 122.856C133.632 119.848 137.99 119.639 141.599 120.391C143.916 120.873 146.171 121.677 148.524 121.975C149.622 122.115 150.733 122.156 151.84 122.136C152.927 122.116 154.016 121.897 155.099 121.937C155.266 121.943 155.329 122.162 155.184 122.251C153.698 123.164 151.696 123.457 149.94 123.636C149.946 123.766 149.954 123.893 149.972 124C150.02 124.287 150.063 124.572 150.099 124.861C150.178 125.512 150.267 126.161 150.356 126.811C150.532 128.09 150.587 129.409 150.895 130.666L150.949 130.875C151.02 131.139 151.037 131.378 151.013 131.592L151.084 131.56L151.31 131.451L151.458 131.381C151.997 131.131 152.512 130.948 153.146 131.009C153.629 131.055 154.035 131.385 154.038 131.901C154.05 134.216 150.931 134.961 149.146 135.404L148.623 135.533C146.352 136.087 144.033 136.573 141.698 136.689C137.949 136.875 133.737 135.841 131.285 132.799C128.998 129.961 128.578 125.723 131.045 122.856ZM148.067 132.584C147.674 129.098 143.392 128.906 142.16 131.117C141.613 128.035 133.527 130.85 134.159 131.463C136.556 133.785 140.193 133.994 143.319 133.564C144.912 133.346 146.505 132.99 148.067 132.584ZM143.315 123.447L142.238 123.292L141.814 123.234C139.146 122.876 136.144 122.691 133.95 124.403C133.149 125.028 132.698 125.843 132.53 126.718C134.606 126.41 136.69 126.176 138.78 125.98L139.35 125.928C140.658 125.81 141.965 125.685 143.271 125.555L144.2 125.461L145.128 125.365C145.455 125.33 147.656 125.218 148.07 125.293C148.114 124.921 148.171 124.116 148.265 123.754C146.701 123.807 145.144 123.691 143.589 123.485L143.315 123.447ZM148.271 107.866C149.866 108.836 152.297 111.098 150.581 113.503C148.56 115.624 145.652 113.193 144.218 112.093C142.889 111.241 141.396 113.433 142.629 114.428C152.986 122.099 157.19 108.12 149.077 106.726C148.184 106.572 147.853 107.566 148.271 107.866ZM151.126 111.953L151.202 111.911L151.228 111.896C151.273 111.867 151.245 111.87 151.143 111.905L151.066 111.933V111.987C151.086 111.975 151.107 111.965 151.126 111.953ZM130.694 103.334L130.693 103.287C130.696 101.939 131.481 98.8616 133.421 98.8616C134.632 98.8616 135.368 100.956 135.495 103.115L135.5 103.203C135.556 104.545 135.188 107.479 133.421 107.479C131.635 107.479 130.712 104.7 130.694 103.334V103.334ZM159.248 102.911L159.248 102.864C159.245 101.516 158.46 98.4389 156.521 98.4389C155.34 98.4389 154.611 100.43 154.457 102.53L154.446 102.692C154.37 103.989 154.714 107.056 156.521 107.056C158.307 107.056 159.229 104.277 159.248 102.911V102.911ZM131.8 89.6727C133.383 89.4319 135.479 89.8893 136.217 91.4994C136.546 92.2167 136.156 93.0099 135.328 93.0496C133.325 93.1456 131.528 92.6996 129.77 94.0026C129.013 94.5634 128.377 95.34 127.843 96.1145L127.641 96.4093L127.474 96.6522C127.112 97.1853 126.768 97.7645 126.822 98.4078C126.838 98.5982 126.643 98.7789 126.458 98.7713C125.306 98.7239 125.182 97.2787 125.334 96.4107C125.615 94.7998 126.395 93.2876 127.475 92.0696C128.61 90.7905 130.107 89.9303 131.8 89.6727ZM153.601 91.6278C154.692 90.9259 156.088 90.6562 157.367 90.7595C159.888 90.9626 164.117 93.1066 163.561 96.187C163.389 97.137 162.068 97.6383 161.29 97.1112C160.453 96.5446 160.249 95.6639 159.626 94.9233C159.13 94.3318 158.5 93.9038 157.825 93.5392C157.161 93.1796 156.392 92.9617 155.637 92.8822L155.512 92.8703C155.058 92.8316 152.765 92.842 153.102 93.6981C153.168 93.8657 152.918 93.9985 152.804 93.8717C152.101 93.0939 152.897 92.0805 153.601 91.6278Z" fill="black"/>
</svg>
